<?xml version="1.0" encoding="utf-8"?>
<!-- Generator: Adobe Illustrator 23.1.0, SVG Export Plug-In . SVG Version: 6.00 Build 0)  -->
<svg version="1.1" id="Layer_1" xmlns="http://www.w3.org/2000/svg" xmlns:xlink="http://www.w3.org/1999/xlink" x="0px" y="0px"
	 viewBox="0 0 959 1080" style="enable-background:new 0 0 959 1080;" xml:space="preserve">
<style type="text/css">
	.st0{fill:#3A3A3A;}
	.st1{fill:#1682FE;}
	.st2{fill:#FF5A5A;}
	.st3{opacity:0.2;fill:#60D8A4;enable-background:new    ;}
	.st4{fill:#F4BB3B;}
	.st5{opacity:0.2;fill:#FF5A5A;enable-background:new    ;}
	.st6{opacity:0.8;fill:#60D8A4;enable-background:new    ;}
	.st7{fill:#60D8A4;}
	.st8{opacity:0.4;fill:#F4BB3B;enable-background:new    ;}
	.st9{opacity:0.4;}
	.st10{opacity:0.2;fill:#FFB510;enable-background:new    ;}
	.st11{fill:#FFB510;}
	.st12{opacity:0.4;fill:#3A3A3A;enable-background:new    ;}
	.st13{opacity:0.4;fill:#FF5A5A;enable-background:new    ;}
	.st14{opacity:0.4;fill:#60D8A4;enable-background:new    ;}
	.st15{opacity:0.6;fill:#1682FE;enable-background:new    ;}
	.st16{fill:#115AAE;}
	.st17{fill:#FFEDC0;}
	.st18{fill:#FFCF58;}
	.st19{fill:#FFE7AB;}
	.st20{fill:#FFF6A7;}
	.st21{fill:#FFD880;}
	.st22{fill:#FFF3D5;}
	.st23{fill:#996213;}
	.st24{fill:#D68900;}
	.st25{fill:none;stroke:#996213;stroke-width:2;stroke-miterlimit:10;}
	.st26{fill:#FFFFFF;}
	.st27{fill:#F4A300;}
	.st28{clip-path:url(#SVGID_2_);}
	.st29{fill:#E6EDED;}
	.st30{opacity:0.2;fill:#1682FE;enable-background:new    ;}
	.st31{opacity:0.6;fill:#F4BB3B;enable-background:new    ;}
	.st32{opacity:0.4;fill:#1682FE;enable-background:new    ;}
</style>
<g>
	<rect class="st0" width="3835" height="1080"/>
	<rect y="807.2" class="st1" width="1013.5" height="272.8"/>
	<rect x="560.1" y="728.7" class="st2" width="22.9" height="22.9"/>
	<rect x="358.6" y="425.5" class="st3" width="11.4" height="11.4"/>
	<rect x="680.1" y="353.2" class="st4" width="11.4" height="11.4"/>
	<rect x="368.6" y="153.4" class="st5" width="22.9" height="22.9"/>
	<rect x="660.1" y="178.7" class="st6" width="11.4" height="11.4"/>
	<rect x="554.3" y="486.6" class="st1" width="11.4" height="11.4"/>
	<rect x="768.6" y="557.8" class="st1" width="11.4" height="11.4"/>
	<rect x="847.2" y="244.6" class="st7" width="11.4" height="11.4"/>
	<rect y="741.4" class="st2" width="976.6" height="34.5"/>
	<rect x="582.9" y="705.9" class="st4" width="22.9" height="22.9"/>
	<rect x="830.1" y="741.4" class="st4" width="22.9" height="22.9"/>
	<rect y="764.3" class="st4" width="976.6" height="35.9"/>
	<rect y="787.3" class="st7" width="990" height="23"/>
	<rect x="959" class="st0" width="2876" height="1080"/>
	<rect x="3035.7" y="426.3" class="st2" width="11.4" height="11.4"/>
	<rect x="3537.1" y="402" class="st8" width="22.9" height="22.9"/>
	<rect x="3397.1" y="516.2" class="st4" width="11.4" height="11.4"/>
	<rect x="2954.2" y="215.2" class="st1" width="11.4" height="34.3"/>
	<rect x="2954.2" y="226.7" class="st1" width="11.4" height="11.4"/>
	<rect x="2954.2" y="238.1" class="st1" width="11.4" height="11.4"/>
	<rect x="2942.8" y="226.7" class="st1" width="11.4" height="11.4"/>
	<rect x="2942.8" y="226.7" class="st1" width="34.3" height="11.4"/>
	<rect x="3611.4" y="113.8" class="st1" width="11.4" height="11.4"/>
	<g class="st9">
		<rect x="3347.1" y="527.7" class="st7" width="11.4" height="22.9"/>
		<rect x="3347.1" y="527.7" class="st7" width="11.4" height="11.4"/>
		<rect x="3335.7" y="527.7" class="st7" width="22.9" height="11.4"/>
	</g>
	<rect x="3737.1" y="524.3" class="st10" width="22.9" height="22.9"/>
	<rect x="3767.1" y="253.8" class="st10" width="11.4" height="11.4"/>
	<rect x="3088.5" y="102.3" class="st7" width="11.4" height="11.4"/>
	<rect x="3311.4" y="263.8" class="st11" width="11.4" height="11.4"/>
	<rect x="2825.5" y="606.3" class="st2" width="1009.5" height="29.9"/>
	<rect x="3077.1" y="606.3" class="st4" width="22.9" height="35.4"/>
	<rect x="3054.2" y="583.4" class="st4" width="22.9" height="22.9"/>
	<rect x="2831.9" y="629" class="st4" width="1003.1" height="25.4"/>
	<rect x="2837.5" y="651.7" class="st7" width="997.6" height="27.4"/>
	<rect x="2837.5" y="674.5" class="st1" width="997.6" height="405.5"/>
	<rect x="959" class="st0" width="1919" height="1080"/>
	<rect x="958" y="833.2" class="st1" width="2107.7" height="246.8"/>
	<path class="st12" d="M2163.9,570.3v-9.8h1.8v9.8H2163.9z M2167.6,570.3v-10.1h1.8v10.1H2167.6z M2171.2,570.3v-10.1h1.8v10.1
		H2171.2z M2177.4,570.4c-0.9,0-1.5-0.3-2-0.8s-0.7-1.3-0.7-2.4v-3.9h1.8v3.8c0,0.6,0.1,1.1,0.4,1.4c0.2,0.3,0.6,0.5,1.1,0.5
		s0.9-0.2,1.2-0.5c0.3-0.4,0.5-0.9,0.5-1.5v-3.6h1.8v6.9h-1.6l-0.1-1.2c-0.2,0.4-0.5,0.7-0.9,1
		C2178.4,570.3,2177.9,570.4,2177.4,570.4z M2186.2,570.4c-0.6,0-1.2-0.1-1.6-0.3c-0.5-0.2-0.8-0.5-1.1-0.8
		c-0.3-0.4-0.4-0.8-0.5-1.2h1.8c0.1,0.3,0.2,0.5,0.4,0.7c0.3,0.2,0.6,0.3,1,0.3s0.7-0.1,0.9-0.2c0.2-0.2,0.3-0.3,0.3-0.5
		c0-0.3-0.1-0.5-0.4-0.6c-0.3-0.1-0.6-0.2-1.1-0.3c-0.3-0.1-0.6-0.1-0.9-0.2c-0.3-0.1-0.6-0.2-0.8-0.3c-0.3-0.2-0.5-0.3-0.6-0.6
		c-0.2-0.2-0.2-0.5-0.2-0.9c0-0.6,0.3-1.1,0.7-1.6c0.5-0.4,1.2-0.6,2.1-0.6c0.8,0,1.5,0.2,2,0.6c0.5,0.4,0.8,0.9,0.9,1.6h-1.7
		c-0.1-0.5-0.5-0.8-1.2-0.8c-0.3,0-0.6,0.1-0.8,0.2c-0.2,0.1-0.3,0.3-0.3,0.5s0.1,0.4,0.4,0.5c0.3,0.1,0.6,0.2,1.1,0.3
		s0.9,0.2,1.3,0.4c0.4,0.1,0.7,0.3,1,0.6s0.4,0.6,0.4,1.1c0,0.4-0.1,0.8-0.3,1.2c-0.2,0.3-0.6,0.6-1,0.8
		C2187.3,570.3,2186.8,570.4,2186.2,570.4z M2193.5,570.3c-0.7,0-1.3-0.2-1.8-0.5c-0.4-0.4-0.7-1-0.7-1.9v-3h-1.2v-1.5h1.2l0.2-1.9
		h1.6v1.9h1.9v1.5h-1.9v3c0,0.3,0.1,0.6,0.2,0.7c0.2,0.1,0.4,0.2,0.8,0.2h0.9v1.5H2193.5z M2196.3,570.3v-6.9h1.6l0.2,1.3
		c0.3-0.4,0.6-0.8,1-1.1s1-0.4,1.5-0.4v1.9h-0.5c-0.4,0-0.7,0.1-1,0.2c-0.3,0.1-0.6,0.3-0.7,0.6c-0.2,0.3-0.3,0.7-0.3,1.2v3.2
		H2196.3z M2204.3,570.4c-0.6,0-1.1-0.1-1.5-0.3s-0.7-0.5-0.9-0.8s-0.3-0.7-0.3-1c0-0.6,0.3-1.2,0.8-1.6c0.5-0.4,1.3-0.6,2.3-0.6
		h1.8V566c0-0.5-0.1-0.8-0.4-1s-0.6-0.3-1-0.3s-0.7,0.1-0.9,0.3c-0.3,0.2-0.4,0.4-0.5,0.8h-1.8c0-0.5,0.2-0.9,0.5-1.3
		c0.3-0.4,0.7-0.7,1.1-0.9c0.5-0.2,1-0.3,1.6-0.3c1,0,1.8,0.2,2.3,0.7c0.6,0.5,0.9,1.2,0.9,2.1v4.3h-1.5l-0.2-1.1
		c-0.2,0.4-0.5,0.7-0.9,0.9C2205.3,570.3,2204.9,570.4,2204.3,570.4z M2204.7,569c0.5,0,0.9-0.2,1.2-0.5s0.5-0.8,0.6-1.2h-1.5
		c-0.5,0-0.8,0.1-1,0.3s-0.3,0.4-0.3,0.6c0,0.3,0.1,0.5,0.3,0.6C2204.1,569,2204.4,569,2204.7,569z M2213,570.3
		c-0.7,0-1.3-0.2-1.8-0.5c-0.4-0.4-0.7-1-0.7-1.9v-3h-1.2v-1.5h1.2l0.2-1.9h1.6v1.9h1.9v1.5h-1.9v3c0,0.3,0.1,0.6,0.2,0.7
		c0.1,0.1,0.4,0.2,0.8,0.2h0.9v1.5H2213z M2216.7,562.2c-0.3,0-0.6-0.1-0.8-0.3s-0.3-0.4-0.3-0.7s0.1-0.5,0.3-0.7s0.5-0.3,0.8-0.3
		s0.6,0.1,0.8,0.3s0.3,0.4,0.3,0.7s-0.1,0.5-0.3,0.7C2217.3,562.1,2217.1,562.2,2216.7,562.2z M2215.8,570.3v-6.9h1.8v6.9H2215.8z
		 M2222.8,570.4c-0.7,0-1.3-0.2-1.8-0.5s-1-0.7-1.3-1.3s-0.5-1.2-0.5-1.9s0.1-1.3,0.5-1.9c0.3-0.6,0.7-1,1.3-1.3
		c0.5-0.3,1.1-0.5,1.8-0.5s1.3,0.2,1.8,0.5s1,0.7,1.3,1.3c0.3,0.5,0.5,1.2,0.5,1.9s-0.2,1.4-0.5,1.9s-0.7,1-1.3,1.3
		C2224.1,570.3,2223.5,570.4,2222.8,570.4z M2222.8,568.9c0.5,0,0.9-0.2,1.2-0.5c0.3-0.4,0.5-0.9,0.5-1.6c0-0.7-0.2-1.2-0.5-1.6
		c-0.4-0.4-0.8-0.5-1.2-0.5c-0.5,0-0.9,0.2-1.2,0.5s-0.5,0.9-0.5,1.6c0,0.7,0.2,1.2,0.5,1.6C2222,568.7,2222.4,568.9,2222.8,568.9z
		 M2228,570.3v-6.9h1.6l0.1,1.2c0.2-0.4,0.5-0.7,0.9-1c0.4-0.2,0.9-0.4,1.4-0.4c0.9,0,1.5,0.3,2,0.8s0.7,1.3,0.7,2.4v3.9h-1.8v-3.8
		c0-0.6-0.1-1.1-0.4-1.4c-0.3-0.3-0.6-0.5-1.1-0.5s-0.9,0.2-1.2,0.5c-0.3,0.4-0.5,0.8-0.5,1.5v3.6h-1.7V570.3z"/>
	<rect x="959" y="719" class="st2" width="1918.9" height="56.9"/>
	<rect x="2010.6" y="673.4" class="st2" width="867.4" height="45.6"/>
	<rect x="2398.6" y="650.6" class="st2" width="479.1" height="45.6"/>
	<rect x="2649.7" y="629" class="st2" width="228.3" height="45.6"/>
	<rect x="1485.5" y="696.2" class="st2" width="1392.4" height="45.6"/>
	<rect x="959" y="741.9" class="st4" width="1918.5" height="68.5"/>
	<rect x="2010.3" y="696.2" class="st4" width="867.2" height="45.6"/>
	<rect x="2398.3" y="673.4" class="st4" width="479.3" height="45.6"/>
	<rect x="2649.3" y="651.7" class="st4" width="228.7" height="45.6"/>
	<rect x="1485.4" y="719" class="st4" width="1392.1" height="45.6"/>
	<rect x="959" y="764.7" class="st7" width="1918.5" height="45.6"/>
	<rect x="2010.3" y="719" class="st7" width="867.2" height="45.6"/>
	<rect x="2398.3" y="696.2" class="st7" width="479.3" height="45.6"/>
	<rect x="2649.3" y="674.5" class="st7" width="228.7" height="45.6"/>
	<rect x="1485.4" y="741.9" class="st7" width="1392.1" height="45.6"/>
	<rect x="959" y="787.3" class="st1" width="2106.7" height="51.5"/>
	<rect x="2010.3" y="741.9" class="st1" width="867.2" height="45.6"/>
	<rect x="2539.1" y="719" class="st1" width="526.6" height="45.6"/>
	<rect x="2814.7" y="697.4" class="st1" width="251" height="45.6"/>
	<rect x="1485.4" y="764.7" class="st1" width="1392.6" height="45.6"/>
	<rect x="2306.9" y="696.3" class="st1" width="23" height="23"/>
	<rect x="2352.9" y="650.3" class="st2" width="22" height="23"/>
	<rect x="2374.9" y="627.3" class="st1" width="23" height="23"/>
	<rect x="2420.9" y="582.3" class="st4" width="23" height="23"/>
	<rect x="2374.9" y="536.3" class="st7" width="23" height="23"/>
	<rect x="2397.9" y="468.3" class="st7" width="23" height="23"/>
	<rect x="2169.9" y="673.3" class="st1" width="23" height="23"/>
	<rect x="2147" y="627.3" class="st1" width="23" height="23"/>
	<rect x="2238.9" y="673.3" class="st4" width="22" height="23"/>
	<rect x="2260.9" y="650.3" class="st4" width="23" height="23"/>
	<rect x="2215.9" y="582.3" class="st4" width="23" height="23"/>
	<rect x="2352.9" y="445.3" class="st4" width="22" height="23"/>
	<rect x="2329.9" y="354.3" class="st2" width="23" height="22"/>
	<rect x="2215.9" y="468.3" class="st2" width="23" height="23"/>
	<rect x="1828" y="627.3" class="st8" width="23" height="23"/>
	<rect x="1873" y="673.3" class="st2" width="23" height="23"/>
	<rect x="1782" y="719" class="st7" width="23" height="26.4"/>
	<rect x="1189" y="764.7" class="st1" width="23" height="28.4"/>
	<rect x="1040" y="696.3" class="st2" width="23" height="23"/>
	<rect x="1896" y="696.3" class="st4" width="23" height="23"/>
	<rect x="2010" y="331.3" class="st13" width="23" height="23"/>
	<rect x="1326" y="502.3" class="st5" width="22" height="23"/>
	<rect x="1654" y="495.3" class="st13" width="12" height="12"/>
	<rect x="2203.9" y="570.3" class="st2" width="12" height="12"/>
	<rect x="1851" y="535.3" class="st4" width="22" height="23"/>
	<rect x="2033" y="422.3" class="st4" width="12" height="11"/>
	<rect x="1759" y="673.3" class="st4" width="12" height="12"/>
	<rect x="1029" y="548.3" class="st3" width="11" height="11"/>
	<rect x="1075" y="513.3" class="st4" width="11" height="12"/>
	<rect x="1771" y="707.3" class="st4" width="11" height="12"/>
	<rect x="1896" y="593.3" class="st1" width="12" height="12"/>
	<rect x="1234" y="388.3" class="st14" width="12" height="11"/>
	<rect x="2340.9" y="432.3" class="st7" width="12" height="12"/>
	<rect x="1514" y="387.3" class="st15" width="11" height="11"/>
	<rect x="2192.9" y="388.3" class="st1" width="11" height="11"/>
	<rect x="2306.9" y="513.3" class="st1" width="23" height="23"/>
	<rect x="2580.9" y="354.3" class="st1" width="23" height="22"/>
	<rect x="2329.9" y="719.3" class="st1" width="45" height="45"/>
	<rect x="2442.9" y="400.3" class="st1" width="45" height="46"/>
	<rect x="2443.9" y="605.3" class="st2" width="68" height="68"/>
	<rect x="2033" y="649.8" class="st2" width="46" height="46"/>
	<rect x="2465.9" y="423.3" class="st1" width="22" height="23"/>
	<rect x="2443.9" y="513.3" class="st7" width="23" height="23"/>
	<rect x="2511.9" y="605.3" class="st7" width="23" height="22"/>
	<rect x="2466.9" y="513.3" class="st1" width="23" height="23"/>
	<rect x="2466.9" y="491.3" class="st7" width="23" height="22"/>
	<rect x="2443.9" y="491.3" class="st1" width="23" height="22"/>
	<rect x="2443.9" y="605.3" class="st4" width="23" height="22"/>
	<rect x="2466.9" y="582.3" class="st2" width="23" height="23"/>
	<rect x="2466.9" y="627.3" class="st2" width="23" height="23"/>
	<rect x="2466.9" y="650.3" class="st2" width="23" height="23"/>
	<rect x="2557.9" y="696.3" class="st2" width="23" height="23"/>
	<rect x="2717.9" y="719.3" class="st1" width="23" height="23"/>
	<rect x="2762.9" y="742.3" class="st16" width="23" height="22"/>
	<rect x="2717.9" y="764.3" class="st16" width="23" height="23"/>
	<rect x="2489.9" y="559.3" class="st4" width="22" height="23"/>
	<rect x="2533.9" y="560.3" class="st4" width="23" height="23"/>
	<rect x="2740.9" y="673.3" class="st1" width="45" height="46"/>
	<rect x="2785.9" y="764.3" class="st16" width="46" height="46"/>
	<path class="st16" d="M2235.2,744.8l318,85.4c20,5.4,41.3,3.4,59.9-5.6l225.1-108c5.5-2.6,4.4-10.8-1.6-11.9l-216.2-39.5
		L2235.2,744.8z"/>
	<path class="st17" d="M2592.1,803.4c0,0-2.9,4.5-12.9,9.8c-9.9,5.3-39.1-17.4-39.1-17.4L2396,649l-181.4-321.5
		c0,0-1.6-10.2,17-13.2c18.7-2.9,394.8,11.5,394.8,11.5l13.1,48.3L2592.1,803.4z"/>
	<path class="st18" d="M2214.6,327.5l13.1,408.4c0.1,4.4,3.3,8.1,7.5,8.9l337.4,69.5c5.7,1.2,11.1-3,11.3-8.8l23.1-453.4
		c0.3-5.2-3.7-9.6-8.8-9.9l-373.6-24.4C2219.1,317.4,2214.4,321.9,2214.6,327.5z"/>
	<path class="st19" d="M2616.4,339.6l77.9-18.2c2.1-8.1-5.1-10.3-6.8-10.4l-304.8-18.2c-7.2-0.4-14.3-0.1-21.4,1l-133,21
		c-1.9,0.3-1.7,3,0.1,3.1l369.7,24.2C2604.3,342.6,2610.5,341.7,2616.4,339.6z"/>
	<path class="st20" d="M2694.7,318.6l-23.8,359.8c-0.4,6.7-2.7,13.2-6.4,18.7l-71.6,105.4c-2.7,4-8.9,1.9-8.6-2.9l23.1-453.7
		c0.1-1.9,1.3-3.6,3.1-4.2l77.9-27.9C2691.6,312.7,2694.9,315.2,2694.7,318.6z"/>
	<path class="st21" d="M2518.4,597.7c-0.5,0-1.1,0-1.6-0.1l-228.1-28.5c-6.3-0.8-11.1-6.1-11.2-12.5l-2.7-159.5
		c-0.1-3.4,1.3-6.7,3.7-9.2s5.7-3.8,9.1-3.8c0.3,0,0.7,0,1,0l236.3,18.3c6.8,0.5,12,6.3,11.8,13.2l-5.5,169.8
		C2531,592.3,2525.4,597.7,2518.4,597.7z"/>
	<path class="st22" d="M2287.6,388c0.2,0,0.5,0,0.7,0l236.3,18.3c4.7,0.4,8.3,4.4,8.2,9.1l-5.5,169.8c-0.2,4.8-4.1,8.6-8.8,8.6
		c-0.4,0-0.7,0-1.1-0.1l-228.1-28.5c-4.4-0.6-7.7-4.2-7.8-8.6l-2.7-159.5C2278.7,392,2282.7,388,2287.6,388z M2287.6,380.2
		c-4.5,0-8.7,1.8-11.9,5s-4.9,7.5-4.8,12l2.7,159.5c0.1,8.3,6.4,15.3,14.6,16.3l228.1,28.5c0.7,0.1,1.4,0.1,2.1,0.1
		c9.1,0,16.4-7.1,16.7-16.2l5.5-169.8c0.3-9-6.5-16.5-15.4-17.2l-236.3-18.3C2288.4,380.2,2288,380.2,2287.6,380.2z"/>
	<path class="st23" d="M2282.7,603.9l119,16.6l1.5,95.6l-117.8-20.3L2282.7,603.9z"/>
	<path class="st23" d="M2253.5,723.4l31.3,6v7.5l-31.3-6.5V723.4z"/>
	<path class="st24" d="M2255.4,723.6v5.5l-1.9,1.2v-7L2255.4,723.6z"/>
	<path class="st22" d="M2255.4,729.1l29.5,5.7v2l-31.3-6.5L2255.4,729.1z"/>
	<path class="st23" d="M2272.1,701.2l31.3,4.8v7.8l-31.3-5.6V701.2z"/>
	<path class="st24" d="M2273.9,701.5v5.5l-1.9,1.2v-7L2273.9,701.5z"/>
	<path class="st22" d="M2273.9,707l29.5,4.8v2l-31.3-5.6L2273.9,707z"/>
	<path class="st19" d="M2281.1,532.2l0.4,24.3c0.1,4.4,3.4,8.1,7.8,8.6l228.1,28.5c5.2,0.6,9.8-3.3,9.9-8.5l5.2-160.5L2281.1,532.2z
		"/>
	<path class="st0" d="M2300.3,409.6c0,0-3.1,28.6-3.1,68.1s5.5,70.1,5.5,70.1c0.1,3.7,2.8,6.7,6.5,7.2c0,0,56.4,10.5,90.9,14
		c50.4,5.1,111.9,10.7,111.9,10.7c4.3,0.5,8.1-2.7,8.3-7.1l4.9-147c0.1-3.9-2.9-7.3-6.8-7.6l-210-15.8
		C2303.9,401.8,2300.2,405.3,2300.3,409.6z"/>
	<path class="st22" d="M2256,718.4l-0.3-0.6l3.8-1.8l289.4,55.8l-4.2,3.6l-288.2-56.7L2256,718.4z"/>
	<path class="st23" d="M2259.5,716l-8.7-358.8l-4.7,3.4l8.3,355.5l0.4,1.1l0.9,0.6L2259.5,716z"/>
	<path class="st25" d="M2246.1,362.1l8.2,352.5c0,2.2,1.6,4.1,3.8,4.5l285.2,56.1c2.9,0.6,5.5-1.6,5.6-4.5l14.9-386.4
		c0.1-2.6-1.8-4.7-4.4-4.9l-308.3-22.2C2248.4,357.1,2246.1,359.3,2246.1,362.1z"/>
	<path class="st26" d="M2271.1,655.5c-0.3-0.1-1.9-0.2-1.9-0.2l0,0l-31.2-3.2c-1.4-0.1-2.9,0-4.2,0.5l-1.8,0.6l-0.6,0.2l0,0
		c-1.9,0.9-1.8,2.6-1.8,2.6l33.2,6.6l5.7-2.4l0.6-3l1.5,1.2c0,0,0.9,0.5,0.9-1.1C2271.6,655.8,2271.4,655.6,2271.1,655.5z"/>
	<path class="st11" d="M2271.6,656.7c0-0.5-0.5-0.8-1-0.5l-2.7,1.6c-0.5,0.3-0.8,0.8-0.8,1.4l0.4,29.3c-3.1-0.3-6.9-0.1-6.9-0.1
		s-0.2,1.5,3.9,3c1.9,0.7,3.1-0.1,4.3-0.6s2.4-1.5,2.4-1.5l0,0c0.4-0.3,0.7-0.8,0.7-1.3L2271.6,656.7z"/>
	<path class="st19" d="M2231.4,654.4l34.4,3.7c0.8,0.1,1.4,0.7,1.4,1.5l0.4,30.4c0,0.9-0.8,1.7-1.8,1.6l-33.9-4
		c-0.8-0.1-1.4-0.7-1.4-1.5l-0.9-30C2229.6,655,2230.4,654.3,2231.4,654.4z"/>
	<path class="st26" d="M2261.6,387.5c-0.3-0.1-1.9-0.2-1.9-0.2l0,0l-31.2-3.2c-1.4-0.1-2.9,0-4.2,0.5l-1.8,0.6l-0.6,0.2l0,0
		c-2,0.9-1.8,2.6-1.8,2.6l33.2,6.6l5.6-2.4l0.6-3l1.5,1.1c0,0,0.9,0.5,0.9-1.1C2262.1,387.7,2261.9,387.6,2261.6,387.5z"/>
	<path class="st11" d="M2262.1,388.6c0-0.5-0.5-0.8-1-0.5l-2.7,1.6c-0.5,0.3-0.8,0.8-0.8,1.4l0.4,29.3c-3.1-0.3-6.9-0.1-6.9-0.1
		s-0.2,1.5,4,3c1.9,0.7,3.1-0.1,4.3-0.6s2.4-1.5,2.4-1.5l0,0c0.5-0.3,0.7-0.8,0.7-1.3L2262.1,388.6z"/>
	<path class="st19" d="M2221.9,386.3l34.4,3.7c0.8,0.1,1.4,0.7,1.4,1.5l0.4,30.4c0,0.9-0.8,1.7-1.8,1.6l-33.9-4
		c-0.8-0.1-1.4-0.7-1.4-1.5l-0.9-30C2220.1,387,2221,386.3,2221.9,386.3z"/>
	<path class="st22" d="M2292.3,672.3l14.3,1.4l0.2,15.6l-13.9-2.1L2292.3,672.3z"/>
	<path class="st18" d="M2292.3,672.3l7.7-3.3l13,1.2l-6.4,3.7L2292.3,672.3z"/>
	<path class="st27" d="M2306.6,673.8l0.2,15.3l6.1-5.4l0.1-13.6L2306.6,673.8z"/>
	<path class="st22" d="M2311.9,675.5l14.3,1.4l0.2,15.6l-13.9-2.1L2311.9,675.5z"/>
	<path class="st18" d="M2312,675.5l7.7-3.3l13,1.2l-6.4,3.7L2312,675.5z"/>
	<path class="st27" d="M2326.2,677.1l0.2,15.3l6.1-5.4l0.1-13.6L2326.2,677.1z"/>
	<path class="st22" d="M2331.4,678.8l14.3,1.3l0.2,15.6l-13.9-2.1L2331.4,678.8z"/>
	<path class="st18" d="M2331.4,678.8l7.6-3.3l13,1.2l-6.4,3.7L2331.4,678.8z"/>
	<path class="st27" d="M2345.7,680.4l0.2,15.3l6.1-5.4l0.1-13.6L2345.7,680.4z"/>
	<path class="st22" d="M2292.3,653.5l14.3,1.4l0.2,15.6l-13.9-2.1L2292.3,653.5z"/>
	<path class="st18" d="M2292.3,653.5l7.7-3.3l13,1.2l-6.4,3.7L2292.3,653.5z"/>
	<path class="st27" d="M2306.6,655.1l0.2,15.3l6.1-5.4l0.1-13.6L2306.6,655.1z"/>
	<path class="st22" d="M2312,656.8l14.3,1.4l0.2,15.6l-13.8-2.1L2312,656.8z"/>
	<path class="st18" d="M2311.9,656.8l7.7-3.3l13,1.2l-6.4,3.7L2311.9,656.8z"/>
	<path class="st27" d="M2326.2,658.4l0.2,15.3l6.1-5.4l0.1-13.6L2326.2,658.4z"/>
	<path class="st22" d="M2331.4,660.1l14.3,1.3l0.2,15.6l-13.9-2.1L2331.4,660.1z"/>
	<path class="st18" d="M2331.4,660.1l7.6-3.3l13,1.2l-6.4,3.7L2331.4,660.1z"/>
	<path class="st27" d="M2345.7,661.7l0.2,15.3l6.1-5.4l0.1-13.6L2345.7,661.7z"/>
	<path class="st22" d="M2292.2,634.9l14.3,1.4l0.2,15.6l-13.8-2.1L2292.2,634.9z"/>
	<path class="st18" d="M2292.2,634.9l7.6-3.3l13,1.2l-6.4,3.7L2292.2,634.9z"/>
	<path class="st27" d="M2306.5,636.5l0.2,15.3l6.1-5.4l0.1-13.6L2306.5,636.5z"/>
	<path class="st22" d="M2311.9,638.2l14.3,1.4l0.2,15.6l-13.9-2.1L2311.9,638.2z"/>
	<path class="st18" d="M2311.9,638.2l7.6-3.3l13,1.2l-6.4,3.7L2311.9,638.2z"/>
	<path class="st27" d="M2326.1,639.8l0.2,15.3l6.1-5.4l0.1-13.6L2326.1,639.8z"/>
	<path class="st22" d="M2331.3,641.5l14.3,1.4l0.2,15.6l-13.9-2.1L2331.3,641.5z"/>
	<path class="st18" d="M2331.3,641.5l7.6-3.3l13,1.2l-6.4,3.7L2331.3,641.5z"/>
	<path class="st27" d="M2345.6,643.1l0.2,15.3l6.1-5.4l0.1-13.6L2345.6,643.1z"/>
	<path class="st22" d="M2292.2,616.2l14.3,1.4l0.2,15.6l-13.8-2.1L2292.2,616.2z"/>
	<path class="st18" d="M2292.2,616.2l7.6-3.3l13,1.2l-6.4,3.7L2292.2,616.2z"/>
	<path class="st27" d="M2306.5,617.8l0.2,15.3l6.1-5.4l0.1-13.6L2306.5,617.8z"/>
	<path class="st22" d="M2311.9,619.5l14.3,1.4l0.2,15.6l-13.9-2.1L2311.9,619.5z"/>
	<path class="st18" d="M2311.9,619.5l7.6-3.3l13,1.2l-6.4,3.7L2311.9,619.5z"/>
	<path class="st27" d="M2326.1,621l0.2,15.3l6.1-5.4l0.1-13.6L2326.1,621z"/>
	<path class="st22" d="M2331.3,622.7l14.3,1.4l0.2,15.6l-13.9-2.1L2331.3,622.7z"/>
	<path class="st18" d="M2331.3,622.7l7.6-3.3l13,1.2l-6.4,3.7L2331.3,622.7z"/>
	<path class="st27" d="M2345.6,624.3l0.2,15.3l6.1-5.4l0.1-13.6L2345.6,624.3z"/>
	<path class="st22" d="M2355.8,643.2l31.6,4.5l0.2,40.8l-31.2-5.3L2355.8,643.2z"/>
	<path class="st18" d="M2355.8,643.2l7.6-3.3l30.3,4.3l-6.4,3.7L2355.8,643.2z"/>
	<path class="st27" d="M2387.4,647.9l0.2,40.5l6.1-5.4l0.1-38.8L2387.4,647.9z"/>
	<path class="st24" d="M2284.8,604.2l2.3,89.6l-1.7,1.9l-2.7-91.8L2284.8,604.2z"/>
	<path class="st22" d="M2285.4,695.7l117.8,20.3v-2.3l-116.1-19.9L2285.4,695.7z"/>
	<path class="st19" d="M2510.4,700c9.5-11.9,6-30.4-7.8-41.4s-32.6-10.3-42.1,1.6c-9.5,11.9-6,30.4,7.8,41.4
		C2482,712.7,2500.9,711.9,2510.4,700z"/>
	<path class="st23" d="M2511.9,696.8c9.5-11.9,6-30.4-7.8-41.4s-32.6-10.3-42.1,1.6c-9.5,11.9-6,30.4,7.8,41.4
		C2483.6,709.4,2502.4,708.7,2511.9,696.8z"/>
	<path class="st27" d="M2495.4,665.1c-5.6-4.5-13.2-4.2-17.1,0.7c-0.3,0.4-0.6,0.8-0.9,1.3l-6.7,8.2l19,17.3l8.7-10.7
		C2502.4,677,2501,669.5,2495.4,665.1z"/>
	<path class="st27" d="M2472.9,678.5l-34-24.4c0,0-2.8-1.6,1.2-7.2c4-5.6,8.4-1.6,8.4-1.6l28.8,26.6
		C2477.4,671.8,2478.5,676.2,2472.9,678.5z"/>
	<path class="st11" d="M2498.4,679.8c1.5-1,1.8-3.2,0.6-4.9c-1.1-1.7-3.2-2.3-4.7-1.3s-1.8,3.2-0.6,4.9
		C2494.8,680.2,2496.9,680.8,2498.4,679.8z"/>
	<path class="st11" d="M2528.7,666.3c2.1-1.4,2.5-4.5,0.9-6.9s-4.6-3.3-6.7-1.9c-2.1,1.4-2.5,4.5-0.9,6.9
		C2523.7,666.8,2526.6,667.7,2528.7,666.3z"/>
	<path class="st11" d="M2494.7,673.4l28.7-16.1l4.9,9.2l-29.9,13.3L2494.7,673.4z"/>
	<path class="st1" d="M2485.3,696.9c2.2-0.2,3.8-1.8,3.6-3.7c-0.1-1.9-2-3.2-4.2-3.1c-2.2,0.2-3.8,1.8-3.6,3.7
		C2481.3,695.7,2483.1,697.1,2485.3,696.9z"/>
	<path class="st24" d="M2484,733.1c3.1-0.2,5.4-2.6,5.1-5.2c-0.2-2.6-2.8-4.6-5.9-4.3c-3.1,0.2-5.4,2.6-5.2,5.2
		C2478.3,731.3,2480.9,733.3,2484,733.1z"/>
	<path class="st24" d="M2488.9,693.7l0.3,34.7l-11.1-0.1l3-34.4L2488.9,693.7z"/>
	<path class="st11" d="M2491,691.3c3.8-4.8,2.4-12.3-3.1-16.8c-5.6-4.4-13.2-4.1-17.1,0.7c-3.8,4.8-2.4,12.3,3.1,16.8
		C2479.5,696.4,2487.1,696.1,2491,691.3z"/>
	<path class="st19" d="M2484,690.3c2.2-2.8,1.4-7.2-1.8-9.8c-3.3-2.6-7.7-2.4-10,0.4c-2.2,2.8-1.4,7.2,1.9,9.8
		C2477.3,693.3,2481.7,693.1,2484,690.3z"/>
	<path class="st27" d="M2484.8,695c0,0-0.8,31.5-0.7,33.5s1.9,2,2.7,0.3c1.1-2.7,0.4-34.5,0.4-34.5
		C2486,694.8,2484.8,695,2484.8,695z"/>
	<path class="st19" d="M2495.2,675.9c0,0-0.5-1.6,0.8-2.4c1.3-0.8,26.8-15.5,28.5-15.5c1.8,0,2.4,1.5,0.4,2.7
		C2522.9,662,2495.7,679.5,2495.2,675.9z"/>
	<path class="st19" d="M2446.9,648c-1.5-1.3-3.1-2.2-4-1.3c-0.9,1-0.5,2.1,1.7,3.9c2.6,2.2,25.8,22.4,26.8,21.5
		C2473.3,670.2,2447.8,648.7,2446.9,648z"/>
	<g>
		<g>
			<defs>
				<rect id="SVGID_1_" x="2359.8" y="423.6" width="102.7" height="115.3"/>
			</defs>
			<clipPath id="SVGID_2_">
				<use xlink:href="#SVGID_1_"  style="overflow:visible;"/>
			</clipPath>
			<g class="st28">
				<path class="st2" d="M2439.6,423.6h-11.4v18.9h11.4V423.6z"/>
				<path class="st2" d="M2451,435.1h-11.4v11.5h11.4V435.1z"/>
				<path class="st2" d="M2451,435.1h-13.9v23.1h13.9V435.1z"/>
				<path class="st1" d="M2451,458.1h-22.9v11.5h22.9V458.1z"/>
				<path class="st1" d="M2439.6,435.1h-11.4v11.5h11.4V435.1z"/>
				<path class="st2" d="M2428.2,423.6h-11.4v11.5h11.4V423.6z"/>
				<path class="st2" d="M2416.8,423.6h-11.4v11.5h11.4V423.6z"/>
				<path class="st2" d="M2405.4,515.8H2394v11.5h11.4V515.8z"/>
				<path class="st2" d="M2405.4,527.3H2394v11.5h11.4V527.3z"/>
				<path class="st2" d="M2428.2,481.2h-11.4v11.5h11.4V481.2z"/>
				<path class="st2" d="M2416.8,481.2h-11.4v11.5h11.4V481.2z"/>
				<path class="st1" d="M2405.4,504.2H2394v11.5h11.4V504.2z"/>
				<path class="st1" d="M2405.4,489.8h-13.8v27.7h13.8V489.8z"/>
				<path class="st2" d="M2405.4,481.2H2394v11.5h11.4V481.2z"/>
				<path class="st2" d="M2405.4,423.6H2394v11.5h11.4V423.6z"/>
				<path class="st1" d="M2405.3,435.1h-14.6v11.5h14.6V435.1z"/>
				<path class="st2" d="M2393.9,435.1h-11.4v11.5h11.4V435.1z"/>
				<path class="st1" d="M2393.9,446.6h-14.2v23h14.2V446.6z"/>
				<path class="st1" d="M2393.9,458.1h-11.4v11.5h11.4V458.1z"/>
				<path class="st2" d="M2382.5,469.7h-11.4v11.5h11.4V469.7z"/>
				<path class="st2" d="M2393.9,481.2h-22.8v57.6h22.8V481.2z"/>
				<path class="st1" d="M2462.5,481.2h-34.3v57.6h34.3V481.2z"/>
				<path class="st2" d="M2393.9,469.7h-11.4v11.5h11.4V469.7z"/>
				<path class="st2" d="M2405.4,469.7H2394v11.5h11.4V469.7z"/>
				<path class="st2" d="M2416.8,469.7h-11.4v11.5h11.4V469.7z"/>
				<path class="st2" d="M2428.2,469.7h-11.4v11.5h11.4V469.7z"/>
				<path class="st2" d="M2439.6,469.7h-11.4v11.5h11.4V469.7z"/>
				<path class="st2" d="M2451,469.7h-11.4v11.5h11.4V469.7z"/>
				<path class="st2" d="M2462.5,469.7h-41.4v11.5h41.4V469.7z"/>
				<path class="st1" d="M2462.5,481.2h-15.6v57.6h15.6V481.2z"/>
				<path class="st1" d="M2462.5,515.8h-57.1v23.1h57.1V515.8z"/>
				<path class="st29" d="M2428.3,423.6h-45.7v11.5h45.7V423.6z"/>
				<path class="st29" d="M2439.7,435.1h-11.4v11.5h11.4V435.1z"/>
				<path class="st29" d="M2439.7,435.1h-11.4v23.1h11.4V435.1z"/>
				<path class="st11" d="M2439.7,456.1h-11.4v13.5h11.4V456.1z"/>
				<path class="st29" d="M2439.6,435.1h-22.8v11.5h22.8V435.1z"/>
				<path class="st29" d="M2416.9,423.6h-11.4v11.5h11.4V423.6z"/>
				<path class="st29" d="M2405.5,423.6H2394v11.5h11.4v-11.5H2405.5z"/>
				<path class="st11" d="M2394,515.8h-11.4v11.5h11.4V515.8z"/>
				<path class="st11" d="M2394,527.3h-11.4v11.5h11.4V527.3z"/>
				<path class="st11" d="M2451.1,481.2h-91.4v11.5h91.4V481.2z"/>
				<path class="st11" d="M2405.5,481.2H2394v11.5h11.4v-11.5H2405.5z"/>
				<path class="st11" d="M2394,504.2h-11.4v11.5h11.4V504.2z"/>
				<path class="st11" d="M2394,492.7h-11.4v11.5h11.4V492.7z"/>
				<path class="st11" d="M2394,481.2h-11.4v11.5h11.4V481.2z"/>
				<path class="st29" d="M2394,423.6h-11.4v11.5h11.4V423.6z"/>
				<path class="st29" d="M2393.9,435.1h-22.8v11.5h22.8V435.1z"/>
				<path class="st29" d="M2382.6,435.1h-11.4v11.5h11.4V435.1z"/>
				<path class="st29" d="M2382.6,435.1h-11.4v23.1h11.4V435.1z"/>
				<path class="st11" d="M2382.6,456.1h-11.4v13.5h11.4V456.1z"/>
				<path class="st29" d="M2451.1,469.7h-91.4v11.5h91.4V469.7z"/>
				<path class="st11" d="M2393.8,481.2h-34.1v57.6h34.1V481.2z"/>
				<path class="st11" d="M2451.1,481.2h-34.3v57.6h34.3V481.2z"/>
				<path class="st29" d="M2382.6,469.7h-11.4v11.5h11.4V469.7z"/>
				<path class="st29" d="M2394,469.7h-11.4v11.5h11.4V469.7z"/>
				<path class="st29" d="M2405.5,469.7H2394v11.5h11.4v-11.5H2405.5z"/>
				<path class="st29" d="M2416.9,469.7h-11.4v11.5h11.4V469.7z"/>
				<path class="st29" d="M2428.3,469.7h-11.4v11.5h11.4V469.7z"/>
				<path class="st29" d="M2439.7,469.7h-11.4v11.5h11.4V469.7z"/>
				<path class="st29" d="M2451.1,469.7h-11.4v11.5h11.4V469.7z"/>
				<path class="st11" d="M2451.1,481.2h-34.3v57.6h34.3V481.2z"/>
				<path class="st11" d="M2451.1,515.8h-91.4v23.1h91.4V515.8z"/>
			</g>
		</g>
	</g>
	<rect x="2336.9" y="458.9" class="st11" width="11.4" height="11.4"/>
	<rect x="2460.7" y="516" class="st11" width="13.2" height="11.4"/>
	<rect x="2496.7" y="436.1" class="st2" width="11.4" height="11.4"/>
	<rect x="2314.1" y="527.4" class="st7" width="11.4" height="11.4"/>
	<rect x="2496.7" y="561.6" class="st1" width="11.4" height="11.4"/>
	<rect x="1029" y="80.3" class="st30" width="23" height="23"/>
	<rect x="1006" y="354.3" class="st5" width="23" height="22"/>
	<rect x="1440" y="68.3" class="st13" width="23" height="23"/>
	<rect x="1605" y="103.3" class="st2" width="12" height="11"/>
	<rect x="1828" y="456.3" class="st30" width="11" height="12"/>
	<rect x="1896" y="0.3" class="st13" width="12" height="11"/>
	<rect x="1097" y="274.3" class="st6" width="12" height="11"/>
	<rect x="1470" y="285.3" class="st31" width="11" height="12"/>
	<rect x="1725" y="365.3" class="st4" width="12" height="11"/>
	<rect x="2008.3" y="429.2" class="st1" width="11.4" height="11.4"/>
	<rect x="2008.3" y="440.6" class="st1" width="11.4" height="11.4"/>
	<rect x="2008.3" y="429.2" class="st1" width="11.4" height="34.2"/>
	<rect x="1996.9" y="440.6" class="st1" width="34.2" height="11.4"/>
	<rect x="2019.7" y="440.6" class="st1" width="11.4" height="11.4"/>
	<rect x="2056" y="240.3" class="st1" width="23" height="11"/>
	<rect x="2125" y="274.3" class="st2" width="11" height="11"/>
	<rect x="2068" y="228.3" class="st1" width="11" height="23"/>
	<rect x="2068" y="240.3" class="st1" width="11" height="11"/>
	<rect x="1965" y="148.3" class="st32" width="11" height="12"/>
	<g class="st9">
		<rect x="1816.3" y="182.7" class="st7" width="11.4" height="22.8"/>
		<rect x="1816.3" y="182.7" class="st7" width="11.4" height="11.4"/>
		<rect x="1804.9" y="182.7" class="st7" width="22.8" height="11.4"/>
	</g>
	<rect x="2192.9" y="217.3" class="st18" width="23" height="23"/>
	<rect x="2147" y="422.3" class="st18" width="23" height="23"/>
	<rect x="2125" y="445.3" class="st11" width="22" height="23"/>
	<rect x="2147" y="468.3" class="st11" width="26" height="23"/>
	<rect x="2079" y="400.3" class="st18" width="23" height="22"/>
	<rect x="2785.9" y="331.3" class="st18" width="23" height="23"/>
	<rect x="1463" y="23.3" class="st15" width="11" height="11"/>
	<rect x="2169.9" y="445.3" class="st18" width="69" height="68"/>
	<rect x="2671.9" y="468.3" class="st18" width="69" height="68"/>
	<rect x="2397.9" y="205.3" class="st11" width="12" height="12"/>
	<rect x="2136" y="91.3" class="st10" width="11" height="11"/>
	<rect x="2022" y="342.3" class="st11" width="11" height="12"/>
	<rect x="1965" y="365.3" class="st7" width="11" height="11"/>
	<rect x="2181.9" y="205.3" class="st7" width="11" height="12"/>
	<rect x="2785.9" y="388.3" class="st11" width="12" height="11"/>
	<rect x="2557.9" y="182.3" class="st2" width="12" height="12"/>
	<rect x="2375.9" y="274.3" class="st7" width="11" height="11"/>
	<rect x="2557.9" y="308.3" class="st1" width="12" height="11"/>
	<rect x="2192.9" y="468.3" class="st11" width="23" height="23"/>
	<rect x="2203.9" y="346.3" class="st11" width="23" height="22"/>
	<rect x="2717.9" y="399.3" class="st18" width="23" height="23"/>
	<rect x="1572" y="309.3" class="st1" width="12" height="11"/>
	<rect x="2238.9" y="468.3" class="st18" width="68" height="23"/>
	<rect x="1474" y="34.3" class="st7" width="11" height="12"/>
</g>
</svg>
