<?xml version="1.0" encoding="utf-8"?>
<!-- Generator: Adobe Illustrator 23.1.0, SVG Export Plug-In . SVG Version: 6.00 Build 0)  -->
<svg version="1.1" id="Layer_1" xmlns="http://www.w3.org/2000/svg" xmlns:xlink="http://www.w3.org/1999/xlink" x="0px" y="0px"
	 viewBox="0 0 958 1080" style="enable-background:new 0 0 958 1080;" xml:space="preserve">
<style type="text/css">
	.st0{fill:#3A3A3A;}
	.st1{fill:#1682FE;}
	.st2{fill:#FF5A5A;}
	.st3{opacity:0.2;fill:#60D8A4;enable-background:new    ;}
	.st4{fill:#F4BB3B;}
	.st5{opacity:0.2;fill:#FF5A5A;enable-background:new    ;}
	.st6{opacity:0.8;fill:#60D8A4;enable-background:new    ;}
	.st7{fill:#60D8A4;}
	.st8{opacity:0.4;fill:#F4BB3B;enable-background:new    ;}
	.st9{opacity:0.4;}
	.st10{opacity:0.2;fill:#FFB510;enable-background:new    ;}
	.st11{fill:#FFB510;}
	.st12{opacity:0.4;fill:#3A3A3A;enable-background:new    ;}
	.st13{opacity:0.4;fill:#FF5A5A;enable-background:new    ;}
	.st14{opacity:0.4;fill:#60D8A4;enable-background:new    ;}
	.st15{opacity:0.6;fill:#1682FE;enable-background:new    ;}
	.st16{fill:#115AAE;}
	.st17{fill:#FFEDC0;}
	.st18{fill:#FFCF58;}
	.st19{fill:#FFE7AB;}
	.st20{fill:#FFF6A7;}
	.st21{fill:#FFD880;}
	.st22{fill:#FFF3D5;}
	.st23{fill:#996213;}
	.st24{fill:#D68900;}
	.st25{fill:none;stroke:#996213;stroke-width:2;stroke-miterlimit:10;}
	.st26{fill:#FFFFFF;}
	.st27{fill:#F4A300;}
	.st28{clip-path:url(#SVGID_2_);}
	.st29{fill:#E6EDED;}
	.st30{opacity:0.2;fill:#1682FE;enable-background:new    ;}
	.st31{opacity:0.6;fill:#F4BB3B;enable-background:new    ;}
	.st32{opacity:0.4;fill:#1682FE;enable-background:new    ;}
</style>
<g>
	<rect x="-2877" class="st0" width="3835" height="1080"/>
	<rect x="-2877" y="807.2" class="st1" width="1013.5" height="272.8"/>
	<rect x="-2316.9" y="728.7" class="st2" width="22.9" height="22.9"/>
	<rect x="-2518.4" y="425.5" class="st3" width="11.4" height="11.4"/>
	<rect x="-2196.9" y="353.2" class="st4" width="11.4" height="11.4"/>
	<rect x="-2508.4" y="153.4" class="st5" width="22.9" height="22.9"/>
	<rect x="-2216.9" y="178.7" class="st6" width="11.4" height="11.4"/>
	<rect x="-2322.7" y="486.6" class="st1" width="11.4" height="11.4"/>
	<rect x="-2108.4" y="557.8" class="st1" width="11.4" height="11.4"/>
	<rect x="-2029.8" y="244.6" class="st7" width="11.4" height="11.4"/>
	<rect x="-2877" y="741.4" class="st2" width="976.6" height="34.5"/>
	<rect x="-2294.1" y="705.9" class="st4" width="22.9" height="22.9"/>
	<rect x="-2046.9" y="741.4" class="st4" width="22.9" height="22.9"/>
	<rect x="-2877" y="764.3" class="st4" width="976.6" height="35.9"/>
	<rect x="-2877" y="787.3" class="st7" width="990" height="23"/>
	<rect x="-1919" class="st0" width="2877" height="1080"/>
	<rect x="158.6" y="426.3" class="st2" width="11.4" height="11.4"/>
	<rect x="660.1" y="402" class="st8" width="22.9" height="22.9"/>
	<rect x="520.1" y="516.2" class="st4" width="11.4" height="11.4"/>
	<rect x="77.2" y="215.2" class="st1" width="11.4" height="34.3"/>
	<rect x="77.2" y="226.7" class="st1" width="11.4" height="11.4"/>
	<rect x="77.2" y="238.1" class="st1" width="11.4" height="11.4"/>
	<rect x="65.8" y="226.7" class="st1" width="11.4" height="11.4"/>
	<rect x="65.8" y="226.7" class="st1" width="34.3" height="11.4"/>
	<rect x="734.4" y="113.8" class="st1" width="11.4" height="11.4"/>
	<g class="st9">
		<rect x="470.1" y="527.7" class="st7" width="11.4" height="22.9"/>
		<rect x="470.1" y="527.7" class="st7" width="11.4" height="11.4"/>
		<rect x="458.6" y="527.7" class="st7" width="22.9" height="11.4"/>
	</g>
	<rect x="860.1" y="524.3" class="st10" width="22.9" height="22.9"/>
	<rect x="890.1" y="253.8" class="st10" width="11.4" height="11.4"/>
	<rect x="211.5" y="102.3" class="st7" width="11.4" height="11.4"/>
	<rect x="434.4" y="263.8" class="st11" width="11.4" height="11.4"/>
	<rect x="-51.5" y="606.3" class="st2" width="1009.5" height="29.9"/>
	<rect x="200.1" y="606.3" class="st4" width="22.9" height="35.4"/>
	<rect x="177.2" y="583.4" class="st4" width="22.9" height="22.9"/>
	<rect x="-45.1" y="629" class="st4" width="1003.1" height="25.4"/>
	<rect x="-39.6" y="651.7" class="st7" width="997.6" height="27.4"/>
	<rect x="-39.6" y="674.5" class="st1" width="997.6" height="405.5"/>
	<rect x="-1919" class="st0" width="1919" height="1080"/>
	<rect x="-1919" y="833.2" class="st1" width="2107.7" height="246.8"/>
	<path class="st12" d="M-713.1,570.3v-9.8h1.8v9.8H-713.1z M-709.4,570.3v-10.1h1.8v10.1H-709.4z M-705.8,570.3v-10.1h1.8v10.1
		H-705.8z M-699.6,570.4c-0.9,0-1.5-0.3-2-0.8s-0.7-1.3-0.7-2.4v-3.9h1.8v3.8c0,0.6,0.1,1.1,0.4,1.4c0.2,0.3,0.6,0.5,1.1,0.5
		s0.9-0.2,1.2-0.5c0.3-0.4,0.5-0.9,0.5-1.5v-3.6h1.8v6.9h-1.6l-0.1-1.2c-0.2,0.4-0.5,0.7-0.9,1
		C-698.6,570.3-699.1,570.4-699.6,570.4z M-690.8,570.4c-0.6,0-1.2-0.1-1.6-0.3c-0.5-0.2-0.8-0.5-1.1-0.8c-0.3-0.4-0.4-0.8-0.5-1.2
		h1.8c0.1,0.3,0.2,0.5,0.4,0.7c0.3,0.2,0.6,0.3,1,0.3s0.7-0.1,0.9-0.2c0.2-0.2,0.3-0.3,0.3-0.5c0-0.3-0.1-0.5-0.4-0.6
		c-0.3-0.1-0.6-0.2-1.1-0.3c-0.3-0.1-0.6-0.1-0.9-0.2c-0.3-0.1-0.6-0.2-0.8-0.3c-0.3-0.2-0.5-0.3-0.6-0.6c-0.2-0.2-0.2-0.5-0.2-0.9
		c0-0.6,0.3-1.1,0.7-1.6c0.5-0.4,1.2-0.6,2.1-0.6c0.8,0,1.5,0.2,2,0.6c0.5,0.4,0.8,0.9,0.9,1.6h-1.7c-0.1-0.5-0.5-0.8-1.2-0.8
		c-0.3,0-0.6,0.1-0.8,0.2c-0.2,0.1-0.3,0.3-0.3,0.5s0.1,0.4,0.4,0.5c0.3,0.1,0.6,0.2,1.1,0.3s0.9,0.2,1.3,0.4c0.4,0.1,0.7,0.3,1,0.6
		s0.4,0.6,0.4,1.1c0,0.4-0.1,0.8-0.3,1.2c-0.2,0.3-0.6,0.6-1,0.8C-689.7,570.3-690.2,570.4-690.8,570.4z M-683.5,570.3
		c-0.7,0-1.3-0.2-1.8-0.5c-0.4-0.4-0.7-1-0.7-1.9v-3h-1.2v-1.5h1.2l0.2-1.9h1.6v1.9h1.9v1.5h-1.9v3c0,0.3,0.1,0.6,0.2,0.7
		c0.2,0.1,0.4,0.2,0.8,0.2h0.9v1.5H-683.5z M-680.7,570.3v-6.9h1.6l0.2,1.3c0.3-0.4,0.6-0.8,1-1.1s1-0.4,1.5-0.4v1.9h-0.5
		c-0.4,0-0.7,0.1-1,0.2c-0.3,0.1-0.6,0.3-0.7,0.6c-0.2,0.3-0.3,0.7-0.3,1.2v3.2H-680.7z M-672.7,570.4c-0.6,0-1.1-0.1-1.5-0.3
		s-0.7-0.5-0.9-0.8s-0.3-0.7-0.3-1c0-0.6,0.3-1.2,0.8-1.6c0.5-0.4,1.3-0.6,2.3-0.6h1.8V566c0-0.5-0.1-0.8-0.4-1s-0.6-0.3-1-0.3
		s-0.7,0.1-0.9,0.3c-0.3,0.2-0.4,0.4-0.5,0.8h-1.8c0-0.5,0.2-0.9,0.5-1.3c0.3-0.4,0.7-0.7,1.1-0.9c0.5-0.2,1-0.3,1.6-0.3
		c1,0,1.8,0.2,2.3,0.7c0.6,0.5,0.9,1.2,0.9,2.1v4.3h-1.5l-0.2-1.1c-0.2,0.4-0.5,0.7-0.9,0.9C-671.7,570.3-672.1,570.4-672.7,570.4z
		 M-672.3,569c0.5,0,0.9-0.2,1.2-0.5s0.5-0.8,0.6-1.2h-1.5c-0.5,0-0.8,0.1-1,0.3s-0.3,0.4-0.3,0.6c0,0.3,0.1,0.5,0.3,0.6
		C-672.9,569-672.6,569-672.3,569z M-664,570.3c-0.7,0-1.3-0.2-1.8-0.5c-0.4-0.4-0.7-1-0.7-1.9v-3h-1.2v-1.5h1.2l0.2-1.9h1.6v1.9
		h1.9v1.5h-1.9v3c0,0.3,0.1,0.6,0.2,0.7c0.1,0.1,0.4,0.2,0.8,0.2h0.9v1.5H-664z M-660.3,562.2c-0.3,0-0.6-0.1-0.8-0.3
		s-0.3-0.4-0.3-0.7s0.1-0.5,0.3-0.7s0.5-0.3,0.8-0.3s0.6,0.1,0.8,0.3s0.3,0.4,0.3,0.7s-0.1,0.5-0.3,0.7
		C-659.7,562.1-659.9,562.2-660.3,562.2z M-661.2,570.3v-6.9h1.8v6.9H-661.2z M-654.2,570.4c-0.7,0-1.3-0.2-1.8-0.5s-1-0.7-1.3-1.3
		s-0.5-1.2-0.5-1.9s0.1-1.3,0.5-1.9c0.3-0.6,0.7-1,1.3-1.3c0.5-0.3,1.1-0.5,1.8-0.5s1.3,0.2,1.8,0.5s1,0.7,1.3,1.3
		c0.3,0.5,0.5,1.2,0.5,1.9s-0.2,1.4-0.5,1.9s-0.7,1-1.3,1.3C-652.9,570.3-653.5,570.4-654.2,570.4z M-654.2,568.9
		c0.5,0,0.9-0.2,1.2-0.5c0.3-0.4,0.5-0.9,0.5-1.6c0-0.7-0.2-1.2-0.5-1.6c-0.4-0.4-0.8-0.5-1.2-0.5c-0.5,0-0.9,0.2-1.2,0.5
		s-0.5,0.9-0.5,1.6c0,0.7,0.2,1.2,0.5,1.6C-655,568.7-654.6,568.9-654.2,568.9z M-649,570.3v-6.9h1.6l0.1,1.2c0.2-0.4,0.5-0.7,0.9-1
		c0.4-0.2,0.9-0.4,1.4-0.4c0.9,0,1.5,0.3,2,0.8s0.7,1.3,0.7,2.4v3.9h-1.8v-3.8c0-0.6-0.1-1.1-0.4-1.4c-0.3-0.3-0.6-0.5-1.1-0.5
		s-0.9,0.2-1.2,0.5c-0.3,0.4-0.5,0.8-0.5,1.5v3.6h-1.7V570.3z"/>
	<rect x="-1919" y="719" class="st2" width="1919.9" height="56.9"/>
	<rect x="-866.4" y="673.1" class="st2" width="866.4" height="45.9"/>
	<rect x="-478.4" y="650.6" class="st2" width="478.4" height="45.6"/>
	<rect x="-227.3" y="629" class="st2" width="227.3" height="45.5"/>
	<rect x="-1391.5" y="696.6" class="st2" width="1391.5" height="45.2"/>
	<rect x="-1919" y="741.9" class="st4" width="1919.5" height="68.5"/>
	<rect x="-866.7" y="696.4" class="st4" width="866.5" height="45.4"/>
	<rect x="-478.8" y="673.4" class="st4" width="478.8" height="45.6"/>
	<rect x="-227.7" y="651.7" class="st4" width="227.7" height="45.6"/>
	<rect x="-1391.6" y="719" class="st4" width="1392.1" height="45.6"/>
	<rect x="-1919" y="764.7" class="st7" width="1919.5" height="45.6"/>
	<rect x="-866.7" y="719" class="st7" width="867.2" height="45.6"/>
	<rect x="-227.7" y="674.5" class="st7" width="227.7" height="45.6"/>
	<rect x="-1391.6" y="741.9" class="st7" width="1392.1" height="45.6"/>
	<rect x="-1919" y="787.3" class="st1" width="2107.7" height="51.5"/>
	<rect x="-866.7" y="741.9" class="st1" width="867.2" height="45.6"/>
	<rect x="-337.9" y="719" class="st1" width="526.6" height="45.6"/>
	<rect x="-62.3" y="697.4" class="st1" width="251" height="45.6"/>
	<rect x="-1391.6" y="764.7" class="st1" width="1392.6" height="45.6"/>
	<rect x="-570.1" y="696.3" class="st1" width="23" height="23"/>
	<rect x="-524.1" y="650.3" class="st2" width="22" height="23"/>
	<rect x="-502.1" y="627.3" class="st1" width="23" height="23"/>
	<rect x="-456.1" y="582.3" class="st4" width="23" height="23"/>
	<rect x="-502.1" y="536.3" class="st7" width="23" height="23"/>
	<rect x="-479.1" y="468.3" class="st7" width="23" height="23"/>
	<rect x="-707.1" y="673.3" class="st1" width="23" height="23"/>
	<rect x="-730.1" y="627.3" class="st1" width="23" height="23"/>
	<rect x="-638.1" y="673.3" class="st4" width="22" height="23"/>
	<rect x="-616.1" y="650.3" class="st4" width="23" height="23"/>
	<rect x="-661.1" y="582.3" class="st4" width="23" height="23"/>
	<rect x="-524.1" y="445.3" class="st4" width="22" height="23"/>
	<rect x="-547.1" y="354.3" class="st2" width="23" height="22"/>
	<rect x="-661.1" y="468.3" class="st2" width="23" height="23"/>
	<rect x="-1049" y="627.3" class="st8" width="23" height="23"/>
	<rect x="-1004" y="673.3" class="st2" width="23" height="23"/>
	<rect x="-1095" y="719" class="st7" width="23" height="26.4"/>
	<rect x="-1688" y="764.7" class="st1" width="23" height="28.4"/>
	<rect x="-1837" y="696.3" class="st2" width="23" height="23"/>
	<rect x="-981" y="696.3" class="st4" width="23" height="23"/>
	<rect x="-867.1" y="331.3" class="st13" width="23" height="23"/>
	<rect x="-1551" y="502.3" class="st5" width="22" height="23"/>
	<rect x="-1223" y="495.3" class="st13" width="12" height="12"/>
	<rect x="-673.1" y="570.3" class="st2" width="12" height="12"/>
	<rect x="-1026" y="535.3" class="st4" width="22" height="23"/>
	<rect x="-844.1" y="422.3" class="st4" width="12" height="11"/>
	<rect x="-1118" y="673.3" class="st4" width="12" height="12"/>
	<rect x="-1848" y="548.3" class="st3" width="11" height="11"/>
	<rect x="-1802" y="513.3" class="st4" width="11" height="12"/>
	<rect x="-1106" y="707.3" class="st4" width="11" height="12"/>
	<rect x="-981" y="593.3" class="st1" width="12" height="12"/>
	<rect x="-1643" y="388.3" class="st14" width="12" height="11"/>
	<rect x="-536.1" y="432.3" class="st7" width="12" height="12"/>
	<rect x="-1363" y="387.3" class="st15" width="11" height="11"/>
	<rect x="-684.1" y="388.3" class="st1" width="11" height="11"/>
	<rect x="-570.1" y="513.3" class="st1" width="23" height="23"/>
	<rect x="-296.1" y="354.3" class="st1" width="23" height="22"/>
	<rect x="-547.1" y="719.3" class="st1" width="45" height="45"/>
	<rect x="-434.1" y="400.3" class="st1" width="45" height="46"/>
	<rect x="-433.1" y="605.3" class="st2" width="68" height="68"/>
	<rect x="-844.1" y="649.8" class="st2" width="46" height="46"/>
	<rect x="-411.1" y="423.3" class="st1" width="22" height="23"/>
	<rect x="-433.1" y="513.3" class="st7" width="23" height="23"/>
	<rect x="-365.1" y="605.3" class="st7" width="23" height="22"/>
	<rect x="-410.1" y="513.3" class="st1" width="23" height="23"/>
	<rect x="-410.1" y="491.3" class="st7" width="23" height="22"/>
	<rect x="-433.1" y="491.3" class="st1" width="23" height="22"/>
	<rect x="-433.1" y="605.3" class="st4" width="23" height="22"/>
	<rect x="-410.1" y="582.3" class="st2" width="23" height="23"/>
	<rect x="-410.1" y="627.3" class="st2" width="23" height="23"/>
	<rect x="-410.1" y="650.3" class="st2" width="23" height="23"/>
	<rect x="-319.1" y="696.3" class="st2" width="23" height="23"/>
	<rect x="-159.1" y="719.3" class="st1" width="23" height="23"/>
	<rect x="-114.1" y="742.3" class="st16" width="23" height="22"/>
	<rect x="-159.1" y="764.3" class="st16" width="23" height="23"/>
	<rect x="-387.1" y="559.3" class="st4" width="22" height="23"/>
	<rect x="-343.1" y="560.3" class="st4" width="23" height="23"/>
	<rect x="-136.1" y="673.3" class="st1" width="45" height="46"/>
	<rect x="-91.1" y="764.3" class="st16" width="46" height="46"/>
	<path class="st16" d="M-641.8,744.8l318,85.4c20,5.4,41.3,3.4,59.9-5.6l225.1-108c5.5-2.6,4.4-10.8-1.6-11.9l-216.2-39.5
		L-641.8,744.8z"/>
	<path class="st17" d="M-284.9,803.4c0,0-2.9,4.5-12.9,9.8c-9.9,5.3-39.1-17.4-39.1-17.4L-481,649l-181.4-321.5
		c0,0-1.6-10.2,17-13.2c18.7-2.9,394.8,11.5,394.8,11.5l13.1,48.3L-284.9,803.4z"/>
	<path class="st18" d="M-662.4,327.5l13.1,408.4c0.1,4.4,3.3,8.1,7.5,8.9l337.4,69.5c5.7,1.2,11.1-3,11.3-8.8l23.1-453.4
		c0.3-5.2-3.7-9.6-8.8-9.9l-373.6-24.4C-657.9,317.4-662.6,321.9-662.4,327.5z"/>
	<path class="st19" d="M-260.6,339.6l77.9-18.2c2.1-8.1-5.1-10.3-6.8-10.4l-304.8-18.2c-7.2-0.4-14.3-0.1-21.4,1l-133,21
		c-1.9,0.3-1.7,3,0.1,3.1l369.7,24.2C-272.7,342.6-266.5,341.7-260.6,339.6z"/>
	<path class="st20" d="M-182.3,318.6l-23.8,359.8c-0.4,6.7-2.7,13.2-6.4,18.7l-71.6,105.4c-2.7,4-8.9,1.9-8.6-2.9l23.1-453.7
		c0.1-1.9,1.3-3.6,3.1-4.2l77.9-27.9C-185.4,312.7-182.1,315.2-182.3,318.6z"/>
	<path class="st21" d="M-358.6,597.7c-0.5,0-1.1,0-1.6-0.1l-228.1-28.5c-6.3-0.8-11.1-6.1-11.2-12.5l-2.7-159.5
		c-0.1-3.4,1.3-6.7,3.7-9.2s5.7-3.8,9.1-3.8c0.3,0,0.7,0,1,0l236.3,18.3c6.8,0.5,12,6.3,11.8,13.2l-5.5,169.8
		C-346.1,592.3-351.6,597.7-358.6,597.7z"/>
	<path class="st22" d="M-589.4,388c0.2,0,0.5,0,0.7,0l236.3,18.3c4.7,0.4,8.3,4.4,8.2,9.1l-5.5,169.8c-0.2,4.8-4.1,8.6-8.8,8.6
		c-0.4,0-0.7,0-1.1-0.1l-228.1-28.5c-4.4-0.6-7.7-4.2-7.8-8.6l-2.7-159.5C-598.4,392-594.3,388-589.4,388z M-589.4,380.2
		c-4.5,0-8.7,1.8-11.9,5s-4.9,7.5-4.8,12l2.7,159.5c0.1,8.3,6.4,15.3,14.6,16.3l228.1,28.5c0.7,0.1,1.4,0.1,2.1,0.1
		c9.1,0,16.4-7.1,16.7-16.2l5.5-169.8c0.3-9-6.5-16.5-15.4-17.2l-236.3-18.3C-588.6,380.2-589,380.2-589.4,380.2z"/>
	<path class="st23" d="M-594.3,603.9l119,16.6l1.5,95.6l-117.8-20.3L-594.3,603.9z"/>
	<path class="st23" d="M-623.5,723.4l31.3,6v7.5l-31.3-6.5V723.4z"/>
	<path class="st24" d="M-621.6,723.6v5.5l-1.9,1.2v-7L-621.6,723.6z"/>
	<path class="st22" d="M-621.6,729.1l29.5,5.7v2l-31.3-6.5L-621.6,729.1z"/>
	<path class="st23" d="M-604.9,701.2l31.3,4.8v7.8l-31.3-5.6V701.2z"/>
	<path class="st24" d="M-603.1,701.5v5.5l-1.9,1.2v-7L-603.1,701.5z"/>
	<path class="st22" d="M-603.1,707l29.5,4.8v2l-31.3-5.6L-603.1,707z"/>
	<path class="st19" d="M-595.9,532.2l0.4,24.3c0.1,4.4,3.4,8.1,7.8,8.6l228.1,28.5c5.2,0.6,9.8-3.3,9.9-8.5l5.2-160.5L-595.9,532.2z
		"/>
	<path class="st0" d="M-576.7,409.6c0,0-3.1,28.6-3.1,68.1s5.5,70.1,5.5,70.1c0.1,3.7,2.8,6.7,6.5,7.2c0,0,56.4,10.5,90.9,14
		c50.4,5.1,111.9,10.7,111.9,10.7c4.3,0.5,8.1-2.7,8.3-7.1l4.9-147c0.1-3.9-2.9-7.3-6.8-7.6l-210-15.8
		C-573.1,401.8-576.8,405.3-576.7,409.6z"/>
	<path class="st22" d="M-621,718.4l-0.3-0.6l3.8-1.8l289.4,55.8l-4.2,3.6l-288.2-56.7L-621,718.4z"/>
	<path class="st23" d="M-617.5,716l-8.7-358.8l-4.7,3.4l8.3,355.5l0.4,1.1l0.9,0.6L-617.5,716z"/>
	<path class="st25" d="M-630.9,362.1l8.2,352.5c0,2.2,1.6,4.1,3.8,4.5l285.2,56.1c2.9,0.6,5.5-1.6,5.6-4.5l14.9-386.4
		c0.1-2.6-1.8-4.7-4.4-4.9l-308.3-22.2C-628.6,357.1-630.9,359.3-630.9,362.1z"/>
	<path class="st26" d="M-605.9,655.5c-0.3-0.1-1.9-0.2-1.9-0.2l0,0l-31.2-3.2c-1.4-0.1-2.9,0-4.2,0.5l-1.8,0.6l-0.6,0.2l0,0
		c-1.9,0.9-1.8,2.6-1.8,2.6l33.2,6.6l5.7-2.4l0.6-3l1.5,1.2c0,0,0.9,0.5,0.9-1.1C-605.4,655.8-605.6,655.6-605.9,655.5z"/>
	<path class="st11" d="M-605.4,656.7c0-0.5-0.5-0.8-1-0.5l-2.7,1.6c-0.5,0.3-0.8,0.8-0.8,1.4l0.4,29.3c-3.1-0.3-6.9-0.1-6.9-0.1
		s-0.2,1.5,3.9,3c1.9,0.7,3.1-0.1,4.3-0.6s2.4-1.5,2.4-1.5l0,0c0.4-0.3,0.7-0.8,0.7-1.3L-605.4,656.7z"/>
	<path class="st19" d="M-645.6,654.4l34.4,3.7c0.8,0.1,1.4,0.7,1.4,1.5l0.4,30.4c0,0.9-0.8,1.7-1.8,1.6l-33.9-4
		c-0.8-0.1-1.4-0.7-1.4-1.5l-0.9-30C-647.4,655-646.6,654.3-645.6,654.4z"/>
	<path class="st26" d="M-615.4,387.5c-0.3-0.1-1.9-0.2-1.9-0.2l0,0l-31.2-3.2c-1.4-0.1-2.9,0-4.2,0.5l-1.8,0.6l-0.6,0.2l0,0
		c-2,0.9-1.8,2.6-1.8,2.6l33.2,6.6l5.6-2.4l0.6-3l1.5,1.1c0,0,0.9,0.5,0.9-1.1C-614.9,387.7-615.1,387.6-615.4,387.5z"/>
	<path class="st11" d="M-614.9,388.6c0-0.5-0.5-0.8-1-0.5l-2.7,1.6c-0.5,0.3-0.8,0.8-0.8,1.4l0.4,29.3c-3.1-0.3-6.9-0.1-6.9-0.1
		s-0.2,1.5,4,3c1.9,0.7,3.1-0.1,4.3-0.6s2.4-1.5,2.4-1.5l0,0c0.5-0.3,0.7-0.8,0.7-1.3L-614.9,388.6z"/>
	<path class="st19" d="M-655.1,386.3l34.4,3.7c0.8,0.1,1.4,0.7,1.4,1.5l0.4,30.4c0,0.9-0.8,1.7-1.8,1.6l-33.9-4
		c-0.8-0.1-1.4-0.7-1.4-1.5l-0.9-30C-656.9,387-656,386.3-655.1,386.3z"/>
	<path class="st22" d="M-584.7,672.3l14.3,1.4l0.2,15.6l-13.9-2.1L-584.7,672.3z"/>
	<path class="st18" d="M-584.7,672.3l7.7-3.3l13,1.2l-6.4,3.7L-584.7,672.3z"/>
	<path class="st27" d="M-570.4,673.8l0.2,15.3l6.1-5.4l0.1-13.6L-570.4,673.8z"/>
	<path class="st22" d="M-565.1,675.5l14.3,1.4l0.2,15.6l-13.9-2.1L-565.1,675.5z"/>
	<path class="st18" d="M-565.1,675.5l7.7-3.3l13,1.2l-6.4,3.7L-565.1,675.5z"/>
	<path class="st27" d="M-550.8,677.1l0.2,15.3l6.1-5.4l0.1-13.6L-550.8,677.1z"/>
	<path class="st22" d="M-545.6,678.8l14.3,1.3l0.2,15.6l-13.9-2.1L-545.6,678.8z"/>
	<path class="st18" d="M-545.6,678.8l7.6-3.3l13,1.2l-6.4,3.7L-545.6,678.8z"/>
	<path class="st27" d="M-531.4,680.4l0.2,15.3l6.1-5.4l0.1-13.6L-531.4,680.4z"/>
	<path class="st22" d="M-584.7,653.5l14.3,1.4l0.2,15.6l-13.9-2.1L-584.7,653.5z"/>
	<path class="st18" d="M-584.7,653.5l7.7-3.3l13,1.2l-6.4,3.7L-584.7,653.5z"/>
	<path class="st27" d="M-570.4,655.1l0.2,15.3l6.1-5.4l0.1-13.6L-570.4,655.1z"/>
	<path class="st22" d="M-565.1,656.8l14.3,1.4l0.2,15.6l-13.8-2.1L-565.1,656.8z"/>
	<path class="st18" d="M-565.1,656.8l7.7-3.3l13,1.2l-6.4,3.7L-565.1,656.8z"/>
	<path class="st27" d="M-550.8,658.4l0.2,15.3l6.1-5.4l0.1-13.6L-550.8,658.4z"/>
	<path class="st22" d="M-545.6,660.1l14.3,1.3l0.2,15.6l-13.9-2.1L-545.6,660.1z"/>
	<path class="st18" d="M-545.6,660.1l7.6-3.3l13,1.2l-6.4,3.7L-545.6,660.1z"/>
	<path class="st27" d="M-531.4,661.7l0.2,15.3l6.1-5.4l0.1-13.6L-531.4,661.7z"/>
	<path class="st22" d="M-584.8,634.9l14.3,1.4l0.2,15.6l-13.8-2.1L-584.8,634.9z"/>
	<path class="st18" d="M-584.8,634.9l7.6-3.3l13,1.2l-6.4,3.7L-584.8,634.9z"/>
	<path class="st27" d="M-570.5,636.5l0.2,15.3l6.1-5.4l0.1-13.6L-570.5,636.5z"/>
	<path class="st22" d="M-565.1,638.2l14.3,1.4l0.2,15.6l-13.9-2.1L-565.1,638.2z"/>
	<path class="st18" d="M-565.1,638.2l7.6-3.3l13,1.2l-6.4,3.7L-565.1,638.2z"/>
	<path class="st27" d="M-550.9,639.8l0.2,15.3l6.1-5.4l0.1-13.6L-550.9,639.8z"/>
	<path class="st22" d="M-545.7,641.5l14.3,1.4l0.2,15.6l-13.9-2.1L-545.7,641.5z"/>
	<path class="st18" d="M-545.7,641.5l7.6-3.3l13,1.2l-6.4,3.7L-545.7,641.5z"/>
	<path class="st27" d="M-531.4,643.1l0.2,15.3l6.1-5.4l0.1-13.6L-531.4,643.1z"/>
	<path class="st22" d="M-584.8,616.2l14.3,1.4l0.2,15.6l-13.8-2.1L-584.8,616.2z"/>
	<path class="st18" d="M-584.8,616.2l7.6-3.3l13,1.2l-6.4,3.7L-584.8,616.2z"/>
	<path class="st27" d="M-570.5,617.8l0.2,15.3l6.1-5.4l0.1-13.6L-570.5,617.8z"/>
	<path class="st22" d="M-565.1,619.5l14.3,1.4l0.2,15.6l-13.9-2.1L-565.1,619.5z"/>
	<path class="st18" d="M-565.1,619.5l7.6-3.3l13,1.2l-6.4,3.7L-565.1,619.5z"/>
	<path class="st27" d="M-550.9,621l0.2,15.3l6.1-5.4l0.1-13.6L-550.9,621z"/>
	<path class="st22" d="M-545.7,622.7l14.3,1.4l0.2,15.6l-13.9-2.1L-545.7,622.7z"/>
	<path class="st18" d="M-545.7,622.7l7.6-3.3l13,1.2l-6.4,3.7L-545.7,622.7z"/>
	<path class="st27" d="M-531.4,624.3l0.2,15.3l6.1-5.4l0.1-13.6L-531.4,624.3z"/>
	<path class="st22" d="M-521.2,643.2l31.6,4.5l0.2,40.8l-31.2-5.3L-521.2,643.2z"/>
	<path class="st18" d="M-521.2,643.2l7.6-3.3l30.3,4.3l-6.4,3.7L-521.2,643.2z"/>
	<path class="st27" d="M-489.6,647.9l0.2,40.5l6.1-5.4l0.1-38.8L-489.6,647.9z"/>
	<path class="st24" d="M-592.2,604.2l2.3,89.6l-1.7,1.9l-2.7-91.8L-592.2,604.2z"/>
	<path class="st22" d="M-591.6,695.7l117.8,20.3v-2.3l-116.1-19.9L-591.6,695.7z"/>
	<path class="st19" d="M-366.6,700c9.5-11.9,6-30.4-7.8-41.4s-32.6-10.3-42.1,1.6c-9.5,11.9-6,30.4,7.8,41.4
		C-395,712.7-376.1,711.9-366.6,700z"/>
	<path class="st23" d="M-365.1,696.8c9.5-11.9,6-30.4-7.8-41.4s-32.6-10.3-42.1,1.6c-9.5,11.9-6,30.4,7.8,41.4
		C-393.4,709.4-374.6,708.7-365.1,696.8z"/>
	<path class="st27" d="M-381.6,665.1c-5.6-4.5-13.2-4.2-17.1,0.7c-0.3,0.4-0.6,0.8-0.9,1.3l-6.7,8.2l19,17.3l8.7-10.7
		C-374.6,677-376,669.5-381.6,665.1z"/>
	<path class="st27" d="M-404.1,678.5l-34-24.4c0,0-2.8-1.6,1.2-7.2c4-5.6,8.4-1.6,8.4-1.6l28.8,26.6
		C-399.6,671.8-398.5,676.2-404.1,678.5z"/>
	<path class="st11" d="M-378.6,679.8c1.5-1,1.8-3.2,0.6-4.9c-1.1-1.7-3.2-2.3-4.7-1.3s-1.8,3.2-0.6,4.9
		C-382.2,680.2-380.1,680.8-378.6,679.8z"/>
	<path class="st11" d="M-348.3,666.3c2.1-1.4,2.5-4.5,0.9-6.9s-4.6-3.3-6.7-1.9c-2.1,1.4-2.5,4.5-0.9,6.9S-350.4,667.7-348.3,666.3z
		"/>
	<path class="st11" d="M-382.4,673.4l28.7-16.1l4.9,9.2l-29.9,13.3L-382.4,673.4z"/>
	<path class="st1" d="M-391.7,696.9c2.2-0.2,3.8-1.8,3.6-3.7c-0.1-1.9-2-3.2-4.2-3.1c-2.2,0.2-3.8,1.8-3.6,3.7
		C-395.8,695.7-393.9,697.1-391.7,696.9z"/>
	<path class="st24" d="M-393,733.1c3.1-0.2,5.4-2.6,5.1-5.2c-0.2-2.6-2.8-4.6-5.9-4.3c-3.1,0.2-5.4,2.6-5.2,5.2
		C-398.7,731.3-396.1,733.3-393,733.1z"/>
	<path class="st24" d="M-388.1,693.7l0.3,34.7l-11.1-0.1l3-34.4L-388.1,693.7z"/>
	<path class="st11" d="M-386,691.3c3.8-4.8,2.4-12.3-3.1-16.8c-5.6-4.4-13.2-4.1-17.1,0.7c-3.8,4.8-2.4,12.3,3.1,16.8
		C-397.5,696.4-389.9,696.1-386,691.3z"/>
	<path class="st19" d="M-393,690.3c2.2-2.8,1.4-7.2-1.8-9.8c-3.3-2.6-7.7-2.4-10,0.4c-2.2,2.8-1.4,7.2,1.9,9.8
		C-399.7,693.3-395.3,693.1-393,690.3z"/>
	<path class="st27" d="M-392.2,695c0,0-0.8,31.5-0.7,33.5c0.1,2,1.9,2,2.7,0.3c1.1-2.7,0.4-34.5,0.4-34.5
		C-391,694.8-392.2,695-392.2,695z"/>
	<path class="st19" d="M-381.8,675.9c0,0-0.5-1.6,0.8-2.4c1.3-0.8,26.8-15.5,28.5-15.5c1.8,0,2.4,1.5,0.4,2.7
		C-354.1,662-381.3,679.5-381.8,675.9z"/>
	<path class="st19" d="M-430.1,648c-1.5-1.3-3.1-2.2-4-1.3c-0.9,1-0.5,2.1,1.7,3.9c2.6,2.2,25.8,22.4,26.8,21.5
		C-403.7,670.2-429.2,648.7-430.1,648z"/>
	<g>
		<g>
			<defs>
				<rect id="SVGID_1_" x="-517.2" y="423.6" width="102.7" height="115.3"/>
			</defs>
			<clipPath id="SVGID_2_">
				<use xlink:href="#SVGID_1_"  style="overflow:visible;"/>
			</clipPath>
			<g class="st28">
				<path class="st2" d="M-437.4,423.6h-11.4v18.9h11.4V423.6z"/>
				<path class="st2" d="M-426,435.1h-11.4v11.5h11.4V435.1z"/>
				<path class="st2" d="M-426,435.1h-13.9v23.1h13.9V435.1z"/>
				<path class="st1" d="M-426,458.1h-22.9v11.5h22.9V458.1z"/>
				<path class="st1" d="M-437.4,435.1h-11.4v11.5h11.4V435.1z"/>
				<path class="st2" d="M-448.8,423.6h-11.4v11.5h11.4V423.6z"/>
				<path class="st2" d="M-460.2,423.6h-11.4v11.5h11.4V423.6z"/>
				<path class="st2" d="M-471.6,515.8H-483v11.5h11.4V515.8z"/>
				<path class="st2" d="M-471.6,527.3H-483v11.5h11.4V527.3z"/>
				<path class="st2" d="M-448.8,481.2h-11.4v11.5h11.4V481.2z"/>
				<path class="st2" d="M-460.2,481.2h-11.4v11.5h11.4V481.2z"/>
				<path class="st1" d="M-471.6,504.2H-483v11.5h11.4V504.2z"/>
				<path class="st1" d="M-471.6,489.8h-13.8v27.7h13.8V489.8z"/>
				<path class="st2" d="M-471.6,481.2H-483v11.5h11.4V481.2z"/>
				<path class="st2" d="M-471.6,423.6H-483v11.5h11.4V423.6z"/>
				<path class="st1" d="M-471.8,435.1h-14.6v11.5h14.6V435.1z"/>
				<path class="st2" d="M-483.1,435.1h-11.4v11.5h11.4V435.1z"/>
				<path class="st1" d="M-483.1,446.6h-14.2v23h14.2V446.6z"/>
				<path class="st1" d="M-483.1,458.1h-11.4v11.5h11.4V458.1z"/>
				<path class="st2" d="M-494.5,469.7h-11.4v11.5h11.4V469.7z"/>
				<path class="st2" d="M-483.1,481.2h-22.8v57.6h22.8V481.2z"/>
				<path class="st1" d="M-414.5,481.2h-34.3v57.6h34.3V481.2z"/>
				<path class="st2" d="M-483.1,469.7h-11.4v11.5h11.4V469.7z"/>
				<path class="st2" d="M-471.6,469.7H-483v11.5h11.4V469.7z"/>
				<path class="st2" d="M-460.2,469.7h-11.4v11.5h11.4V469.7z"/>
				<path class="st2" d="M-448.8,469.7h-11.4v11.5h11.4V469.7z"/>
				<path class="st2" d="M-437.4,469.7h-11.4v11.5h11.4V469.7z"/>
				<path class="st2" d="M-426,469.7h-11.4v11.5h11.4V469.7z"/>
				<path class="st2" d="M-414.5,469.7h-41.4v11.5h41.4V469.7z"/>
				<path class="st1" d="M-414.5,481.2h-15.6v57.6h15.6V481.2z"/>
				<path class="st1" d="M-414.5,515.8h-57.1v23.1h57.1V515.8z"/>
				<path class="st29" d="M-448.7,423.6h-45.7v11.5h45.7V423.6z"/>
				<path class="st29" d="M-437.3,435.1h-11.4v11.5h11.4V435.1z"/>
				<path class="st29" d="M-437.3,435.1h-11.4v23.1h11.4V435.1z"/>
				<path class="st11" d="M-437.3,456.1h-11.4v13.5h11.4V456.1z"/>
				<path class="st29" d="M-437.4,435.1h-22.8v11.5h22.8V435.1z"/>
				<path class="st29" d="M-460.1,423.6h-11.4v11.5h11.4V423.6z"/>
				<path class="st29" d="M-471.6,423.6H-483v11.5h11.4V423.6z"/>
				<path class="st11" d="M-483,515.8h-11.4v11.5h11.4V515.8z"/>
				<path class="st11" d="M-483,527.3h-11.4v11.5h11.4V527.3z"/>
				<path class="st11" d="M-425.9,481.2h-91.4v11.5h91.4V481.2z"/>
				<path class="st11" d="M-471.6,481.2H-483v11.5h11.4V481.2z"/>
				<path class="st11" d="M-483,504.2h-11.4v11.5h11.4V504.2z"/>
				<path class="st11" d="M-483,492.7h-11.4v11.5h11.4V492.7z"/>
				<path class="st11" d="M-483,481.2h-11.4v11.5h11.4V481.2z"/>
				<path class="st29" d="M-483,423.6h-11.4v11.5h11.4V423.6z"/>
				<path class="st29" d="M-483.1,435.1h-22.8v11.5h22.8V435.1z"/>
				<path class="st29" d="M-494.4,435.1h-11.4v11.5h11.4V435.1z"/>
				<path class="st29" d="M-494.4,435.1h-11.4v23.1h11.4V435.1z"/>
				<path class="st11" d="M-494.4,456.1h-11.4v13.5h11.4V456.1z"/>
				<path class="st29" d="M-425.9,469.7h-91.4v11.5h91.4V469.7z"/>
				<path class="st11" d="M-483.2,481.2h-34.1v57.6h34.1L-483.2,481.2L-483.2,481.2z"/>
				<path class="st11" d="M-425.9,481.2h-34.3v57.6h34.3V481.2z"/>
				<path class="st29" d="M-494.4,469.7h-11.4v11.5h11.4V469.7z"/>
				<path class="st29" d="M-483,469.7h-11.4v11.5h11.4V469.7z"/>
				<path class="st29" d="M-471.6,469.7H-483v11.5h11.4V469.7z"/>
				<path class="st29" d="M-460.1,469.7h-11.4v11.5h11.4V469.7z"/>
				<path class="st29" d="M-448.7,469.7h-11.4v11.5h11.4V469.7z"/>
				<path class="st29" d="M-437.3,469.7h-11.4v11.5h11.4V469.7z"/>
				<path class="st29" d="M-425.9,469.7h-11.4v11.5h11.4V469.7z"/>
				<path class="st11" d="M-425.9,481.2h-34.3v57.6h34.3V481.2z"/>
				<path class="st11" d="M-425.9,515.8h-91.4v23.1h91.4V515.8z"/>
			</g>
		</g>
	</g>
	<rect x="-540.1" y="458.9" class="st11" width="11.4" height="11.4"/>
	<rect x="-416.3" y="516" class="st11" width="13.2" height="11.4"/>
	<rect x="-380.3" y="436.1" class="st2" width="11.4" height="11.4"/>
	<rect x="-562.9" y="527.4" class="st7" width="11.4" height="11.4"/>
	<rect x="-380.3" y="561.6" class="st1" width="11.4" height="11.4"/>
	<rect x="-1848" y="80.3" class="st30" width="23" height="23"/>
	<rect x="-1871" y="354.3" class="st5" width="23" height="22"/>
	<rect x="-1437" y="68.3" class="st13" width="23" height="23"/>
	<rect x="-1272" y="103.3" class="st2" width="12" height="11"/>
	<rect x="-1049" y="456.3" class="st30" width="11" height="12"/>
	<rect x="-981" y="0.3" class="st13" width="12" height="11"/>
	<rect x="-1780" y="274.3" class="st6" width="12" height="11"/>
	<rect x="-1407" y="285.3" class="st31" width="11" height="12"/>
	<rect x="-1152" y="365.3" class="st4" width="12" height="11"/>
	<rect x="-868.7" y="429.2" class="st1" width="11.4" height="11.4"/>
	<rect x="-868.7" y="440.6" class="st1" width="11.4" height="11.4"/>
	<rect x="-868.7" y="429.2" class="st1" width="11.4" height="34.2"/>
	<rect x="-880.1" y="440.6" class="st1" width="34.2" height="11.4"/>
	<rect x="-857.3" y="440.6" class="st1" width="11.4" height="11.4"/>
	<rect x="-821.1" y="240.3" class="st1" width="23" height="11"/>
	<rect x="-752.1" y="274.3" class="st2" width="11" height="11"/>
	<rect x="-809.1" y="228.3" class="st1" width="11" height="23"/>
	<rect x="-809.1" y="240.3" class="st1" width="11" height="11"/>
	<rect x="-912.1" y="148.3" class="st32" width="11" height="12"/>
	<g class="st9">
		<rect x="-1060.7" y="182.7" class="st7" width="11.4" height="22.8"/>
		<rect x="-1060.7" y="182.7" class="st7" width="11.4" height="11.4"/>
		<rect x="-1072.1" y="182.7" class="st7" width="22.8" height="11.4"/>
	</g>
	<rect x="-684.1" y="217.3" class="st18" width="23" height="23"/>
	<rect x="-730.1" y="422.3" class="st18" width="23" height="23"/>
	<rect x="-752.1" y="445.3" class="st11" width="22" height="23"/>
	<rect x="-730.1" y="468.3" class="st11" width="26" height="23"/>
	<rect x="-798.1" y="400.3" class="st18" width="23" height="22"/>
	<rect x="-91.1" y="331.3" class="st18" width="23" height="23"/>
	<rect x="-1414" y="23.3" class="st15" width="11" height="11"/>
	<rect x="-707.1" y="445.3" class="st18" width="69" height="68"/>
	<rect x="-205.1" y="468.3" class="st18" width="69" height="68"/>
	<rect x="-479.1" y="205.3" class="st11" width="12" height="12"/>
	<rect x="-741.1" y="91.3" class="st10" width="11" height="11"/>
	<rect x="-855.1" y="342.3" class="st11" width="11" height="12"/>
	<rect x="-912.1" y="365.3" class="st7" width="11" height="11"/>
	<rect x="-695.1" y="205.3" class="st7" width="11" height="12"/>
	<rect x="-91.1" y="388.3" class="st11" width="12" height="11"/>
	<rect x="-319.1" y="182.3" class="st2" width="12" height="12"/>
	<rect x="-501.1" y="274.3" class="st7" width="11" height="11"/>
	<rect x="-319.1" y="308.3" class="st1" width="12" height="11"/>
	<rect x="-684.1" y="468.3" class="st11" width="23" height="23"/>
	<rect x="-673.1" y="346.3" class="st11" width="23" height="22"/>
	<rect x="-159.1" y="399.3" class="st18" width="23" height="23"/>
	<rect x="-1305" y="309.3" class="st1" width="12" height="11"/>
	<rect x="-638.1" y="468.3" class="st18" width="68" height="23"/>
	<rect x="-1403" y="34.3" class="st7" width="11" height="12"/>
</g>
</svg>
