<svg width="440" height="501" viewBox="0 0 440 501" fill="none" xmlns="http://www.w3.org/2000/svg">
<g clip-path="url(#clip0)">
<path d="M282.861 343.555H314.289V312.121H282.861V343.555Z" fill="black"/>
<path d="M282.861 312.121H314.289V280.687H282.861V312.121Z" fill="black"/>
<path d="M282.861 280.687H314.289V249.252H282.861V280.687Z" fill="black"/>
<path d="M282.861 249.252H314.289V217.818H282.861V249.252Z" fill="black"/>
<path d="M282.861 217.808H314.289V186.374H282.861V217.808Z" fill="black"/>
<path d="M251.433 249.252H282.861V217.818H251.433V249.252Z" fill="black"/>
<path d="M282.861 186.374H314.289V154.939H282.861V186.374Z" fill="black"/>
<path d="M282.861 154.939H314.289V123.505H282.861V154.939Z" fill="black"/>
<path d="M282.861 123.505H314.289V92.0705H282.861V123.505Z" fill="black"/>
<path d="M282.861 92.0703H314.289V60.636H282.861V92.0703Z" fill="black"/>
<path d="M157.149 186.384V217.818H188.577V186.384H157.149Z" fill="black"/>
<path d="M2.51465 217.818L2.51465 249.252H33.9425V217.818H2.51465Z" fill="black"/>
<path d="M188.577 186.384V217.818H220.005V186.384H188.577Z" fill="black"/>
<path d="M220.005 186.384V217.818H251.433V186.384H220.005Z" fill="black"/>
<path d="M251.433 186.384V217.818H282.861V186.384H251.433Z" fill="black"/>
<path d="M251.433 154.949V186.384H282.861V154.949H251.433Z" fill="black"/>
<path d="M314.288 249.252H345.716V217.818H314.288V249.252Z" fill="black"/>
<path d="M314.289 154.949V186.384H345.716V154.949H314.289Z" fill="black"/>
<path d="M314.289 186.384V217.818H345.716V186.384H314.289Z" fill="black"/>
<path d="M345.716 186.373V217.808H377.144V186.373H345.716Z" fill="black"/>
<path d="M377.145 186.374V217.808H408.572V186.374H377.145Z" fill="black"/>
<path d="M408.572 186.374V217.808H440V186.374H408.572Z" fill="black"/>
<path d="M94.2836 500.727H125.711V469.293H94.2836V500.727Z" fill="black"/>
<path d="M94.2836 469.293H125.711V437.858H94.2836V469.293Z" fill="black"/>
<path d="M94.2836 437.858H125.711V406.424H94.2836V437.858Z" fill="black"/>
<path d="M94.2836 406.424H125.711V374.99H94.2836V406.424Z" fill="black"/>
<path d="M62.8558 437.858H94.2837V406.424H62.8558V437.858Z" fill="black"/>
<path d="M94.2836 374.99H125.711V343.555H94.2836V374.99Z" fill="black"/>
<path d="M62.8558 157.899H94.2837V126.465H62.8558V157.899Z" fill="black"/>
<path d="M62.8558 126.464H94.2837V95.03H62.8558V126.464Z" fill="black"/>
<path d="M62.8558 95.0303H94.2837V63.5959H62.8558V95.0303Z" fill="black"/>
<path d="M62.8558 63.5957L94.2837 63.5957V32.1614H62.8558V63.5957Z" fill="black"/>
<path d="M62.8558 32.1616L94.2837 32.1616V0.727278L62.8558 0.727278V32.1616Z" fill="black"/>
<path d="M94.2836 343.555H125.711V312.121H94.2836V343.555Z" fill="black"/>
<path d="M94.2836 312.121H125.711V280.687H94.2836V312.121Z" fill="black"/>
<path d="M0 374.99L0 406.424H31.4279L31.4279 374.99H0Z" fill="black"/>
<path d="M31.4277 374.99L31.4277 406.424H62.8556V374.99H31.4277Z" fill="black"/>
<path d="M62.8555 374.99V406.424H94.2833V374.99H62.8555Z" fill="black"/>
<path d="M62.8555 343.555V374.99H94.2833V343.555H62.8555Z" fill="black"/>
<path d="M125.711 437.858H157.139V406.424H125.711V437.858Z" fill="black"/>
<path d="M125.711 343.555V374.99H157.139V343.555H125.711Z" fill="black"/>
<path d="M125.711 374.99V406.424H157.139V374.99H125.711Z" fill="black"/>
<path d="M157.139 374.99V406.424H188.567V374.99H157.139Z" fill="black"/>
<path d="M188.567 374.99V406.424H219.995V374.99H188.567Z" fill="black"/>
<path d="M314.278 437.868V469.303H345.706V437.868H314.278Z" fill="black"/>
<path d="M377.145 343.555V374.99H408.572V343.555H377.145Z" fill="black"/>
<path d="M0 63.5959L0 95.0303H31.4278L31.4278 63.5959H0Z" fill="black"/>
<path d="M31.4277 63.5959L31.4277 95.0303H62.8556V63.5959H31.4277Z" fill="black"/>
<path d="M94.2837 63.5959V95.0303H125.712V63.5959H94.2837Z" fill="black"/>
<path d="M125.711 63.5959V95.0303H157.139V63.5959H125.711Z" fill="black"/>
</g>
<defs>
<clipPath id="clip0">
<rect width="440" height="500" fill="white" transform="translate(0 0.727051)"/>
</clipPath>
</defs>
</svg>
