<svg width="346" height="334" viewBox="0 0 346 334" fill="none" xmlns="http://www.w3.org/2000/svg">
<circle cx="179.098" cy="166.902" r="166.902" fill="#1682FE"/>
<rect x="212.397" y="75.9849" width="7.42195" height="11.1898" fill="#1682FE"/>
<rect x="191.07" y="55.2036" width="7.42195" height="11.1898" fill="#1682FE"/>
<rect x="169.763" y="65.8594" width="7.42195" height="11.1898" fill="#60D8A4"/>
<rect x="159.105" y="108.484" width="7.49691" height="31.9648" fill="#F4BB3B"/>
<rect x="159.105" y="76.52" width="7.49691" height="31.9648" fill="#60D8A4"/>
<rect x="223.047" y="86.6377" width="7.42195" height="11.1898" fill="#1682FE"/>
<rect x="223.041" y="119.142" width="7.42195" height="11.1898" fill="#FF5A5A"/>
<rect x="212.392" y="129.799" width="7.42195" height="11.1898" fill="#FF5A5A"/>
<rect x="191.073" y="150.572" width="7.42195" height="11.1898" fill="#FF5A5A"/>
<rect x="169.763" y="139.917" width="7.42195" height="11.1898" fill="#F4BB3B"/>
<path d="M251.297 97.8288V76.5162H240.634V65.8599H219.322V55.2036H198.011V65.8599H176.701V76.5162H166.038V140.45H176.694V151.106H198.005V161.762H219.315V151.106H240.634V140.45H251.297V119.139H229.978V129.796H219.322V140.452H198.011V129.796H187.355V87.1725H198.011V76.5162H219.322V87.1725H229.978V97.8288H251.297Z" fill="white"/>
<path d="M65.6893 231.646H92.0856L55.6522 323.624H33.8774L65.6893 231.646Z" fill="#60D8A4"/>
<path d="M53.6624 115.598H77.0497L33.7553 232.156H0.402832L53.6624 115.598Z" fill="#FF5A5A"/>
<path d="M33.7266 324.322H55.4524L69.1037 286.776H46.5971L33.7266 324.322Z" fill="#FCC24C"/>
<path d="M0.448242 232.012H36.7857L48.9651 181.912H23.5716L0.448242 232.012Z" fill="#1682FE"/>
<path d="M74.2015 115.598H143.8L115.841 181.577H186.056L55.4235 324.382L89.1224 231.647L21.1323 232.191L74.2015 115.598Z" fill="white"/>
<path d="M242.302 252.955H258.461L236.157 309.262H222.827L242.302 252.955Z" fill="#FF5A5A"/>
<path d="M234.939 181.912H249.257L222.752 253.266H202.334L234.939 181.912Z" fill="white"/>
<path d="M222.735 309.689H236.035L244.392 286.705H230.614L222.735 309.689Z" fill="#60D8A4"/>
<path d="M202.362 253.179H224.608L232.064 222.508H216.518L202.362 253.179Z" fill="#60D8A4"/>
<path d="M247.513 181.912H290.12L273.004 222.303H315.989L236.017 309.727L256.647 252.955L215.025 253.289L247.513 181.912Z" fill="#FCC24C"/>
</svg>
