<svg width="347" height="376" viewBox="0 0 347 376" fill="none" xmlns="http://www.w3.org/2000/svg">
<circle cx="173.5" cy="173.5" r="173.5" fill="#60D8A4"/>
<rect x="143.858" y="51.8242" width="9.9995" height="15.0758" fill="#1682FE"/>
<rect x="115.125" y="23.8257" width="9.9995" height="15.0758" fill="#1682FE"/>
<rect x="86.4185" y="38.1821" width="9.9995" height="15.0758" fill="#60D8A4"/>
<rect x="72.0596" y="95.6099" width="10.1005" height="43.0657" fill="#F4BB3B"/>
<rect x="72.0596" y="52.5449" width="10.1005" height="43.0657" fill="#60D8A4"/>
<rect x="158.208" y="66.1763" width="9.9995" height="15.0758" fill="#1682FE"/>
<rect x="158.199" y="109.968" width="9.9995" height="15.0758" fill="#FF5A5A"/>
<rect x="143.852" y="124.327" width="9.9995" height="15.0758" fill="#FF5A5A"/>
<rect x="115.13" y="152.315" width="9.9995" height="15.0758" fill="#FF5A5A"/>
<rect x="86.4185" y="137.959" width="9.9995" height="15.0758" fill="#F4BB3B"/>
<path d="M196.268 81.254V52.5399H181.902V38.1828H153.188V23.8257H124.477V38.1828H95.7655V52.5399H81.3999V138.677H95.757V153.034H124.468V167.391H153.18V153.034H181.902V138.677H196.268V109.965H167.545V124.322H153.188V138.68H124.477V124.322H110.12V66.897H124.477V52.5399H153.188V66.897H167.545V81.254H196.268Z" fill="white"/>
<path d="M193.153 355.696H174.785C176.079 348.727 178.862 334.744 179.638 334.567C180.609 334.345 188.748 332.772 189.708 332.996C190.477 333.176 195.81 340.737 198.38 344.495L193.153 355.696Z" fill="#1682FE"/>
<path d="M58.3707 205.16H77.6176C78.9266 214.628 81.5447 233.697 81.5447 234.22C81.5447 234.744 66.0954 232.78 58.3707 231.733L50.1621 219.646L58.3707 205.16Z" fill="#1682FE"/>
<path d="M193.432 204.952H175.066C176.669 213.087 180.199 229.481 181.5 229.974C183.126 230.591 193.432 228.988 193.432 228.618C193.432 228.323 195.322 218.47 196.267 213.581L193.432 204.952Z" fill="#1682FE"/>
<path d="M56.4703 354.677L42.5147 340.721C41.1449 339.351 41.1449 337.131 42.5147 335.761L52.3387 325.937C53.5104 324.765 53.6926 322.939 52.7948 321.547C47.7733 313.758 44.3172 305.254 42.4219 296.481C42.0715 294.859 40.6516 293.695 38.993 293.695H25.09C23.153 293.695 21.5827 292.125 21.5827 290.188V270.452C21.5827 268.515 23.153 266.944 25.09 266.944H38.993C40.6516 266.944 42.0715 265.78 42.4219 264.159C44.3172 255.385 47.7733 246.882 52.7948 239.093C53.6926 237.701 53.5104 235.874 52.3387 234.703L42.5147 224.879C41.1449 223.509 41.1449 221.289 42.5147 219.919L56.4703 205.963C57.84 204.593 60.0604 204.593 61.4302 205.963L71.2542 215.787C72.4259 216.959 74.2523 217.141 75.6449 216.243C83.4336 211.222 91.9375 207.766 100.711 205.87C102.332 205.52 103.496 204.1 103.496 202.442V188.539C103.496 186.602 105.066 185.031 107.003 185.031H126.74C128.677 185.031 130.247 186.602 130.247 188.539V202.442C130.247 204.1 131.411 205.52 133.032 205.87C141.806 207.766 150.31 211.222 158.098 216.243C159.491 217.141 161.317 216.959 162.489 215.787L172.313 205.963C173.682 204.593 175.903 204.593 177.273 205.963L191.228 219.919C192.598 221.289 192.598 223.509 191.228 224.879L181.404 234.703C180.232 235.874 180.05 237.701 180.948 239.093C185.97 246.882 189.426 255.386 191.321 264.16C191.671 265.781 193.091 266.945 194.75 266.945H208.653C210.59 266.945 212.16 268.515 212.16 270.452V290.189C212.16 292.126 210.59 293.696 208.653 293.696H194.75C193.091 293.696 191.671 294.86 191.321 296.481C189.426 305.255 185.97 313.759 180.948 321.547C180.05 322.94 180.232 324.766 181.404 325.938L191.228 335.762C192.598 337.131 192.598 339.352 191.228 340.722L177.273 354.677C175.903 356.047 173.682 356.047 172.313 354.677L162.489 344.853C161.317 343.681 159.491 343.499 158.098 344.397C150.309 349.419 141.805 352.875 133.032 354.77C131.411 355.12 130.247 356.54 130.247 358.199V372.102C130.247 374.039 128.677 375.609 126.74 375.609H107.003C105.066 375.609 103.496 374.039 103.496 372.102V358.199C103.496 356.54 102.332 355.12 100.711 354.77C91.937 352.875 83.4331 349.419 75.6443 344.397C74.2518 343.499 72.4254 343.681 71.2537 344.853L61.4297 354.677C60.0604 356.046 57.84 356.046 56.4703 354.677Z" fill="#1682FE"/>
<path d="M77.6569 355.638H59.1699C59.7755 350.561 63.0793 339.581 71.45 336.273C79.8206 332.965 84.9251 342.613 86.5479 347.966L77.6569 355.638Z" fill="#1682FE"/>
<path d="M75.0616 354.677L61.106 340.721C59.7362 339.351 59.7362 337.131 61.106 335.761L70.93 325.937C72.1017 324.765 72.2839 322.939 71.3861 321.547C66.3647 313.758 62.9085 305.254 61.0132 296.481C60.6628 294.859 59.2429 293.695 57.5843 293.695H43.6814C41.7443 293.695 40.1741 292.125 40.1741 290.188V270.452C40.1741 268.515 41.7443 266.944 43.6814 266.944H57.5843C59.2429 266.944 60.6628 265.78 61.0132 264.159C62.9085 255.385 66.3647 246.882 71.3861 239.093C72.2839 237.701 72.1017 235.874 70.93 234.703L61.106 224.879C59.7362 223.509 59.7362 221.289 61.106 219.919L75.0616 205.963C76.4314 204.593 78.6517 204.593 80.0215 205.963L89.8455 215.787C91.0172 216.959 92.8436 217.141 94.2362 216.243C102.025 211.222 110.529 207.766 119.302 205.87C120.924 205.52 122.087 204.1 122.087 202.442V188.539C122.087 186.602 123.658 185.031 125.595 185.031H145.331C147.268 185.031 148.838 186.602 148.838 188.539V202.442C148.838 204.1 150.003 205.52 151.623 205.87C160.397 207.766 168.901 211.222 176.689 216.243C178.082 217.141 179.908 216.959 181.08 215.787L190.904 205.963C192.274 204.593 194.494 204.593 195.864 205.963L209.82 219.919C211.189 221.289 211.189 223.509 209.82 224.879L199.996 234.703C198.824 235.874 198.642 237.701 199.539 239.093C204.561 246.882 208.017 255.386 209.912 264.16C210.263 265.781 211.683 266.945 213.341 266.945H227.244C229.181 266.945 230.751 268.515 230.751 270.452V290.189C230.751 292.126 229.181 293.696 227.244 293.696H213.341C211.683 293.696 210.263 294.86 209.912 296.481C208.017 305.255 204.561 313.759 199.539 321.547C198.642 322.94 198.824 324.766 199.996 325.938L209.82 335.762C211.189 337.131 211.189 339.352 209.82 340.722L195.864 354.677C194.494 356.047 192.274 356.047 190.904 354.677L181.08 344.853C179.908 343.681 178.082 343.499 176.689 344.397C168.901 349.419 160.397 352.875 151.623 354.77C150.002 355.12 148.838 356.54 148.838 358.199V372.102C148.838 374.039 147.268 375.609 145.331 375.609H125.595C123.658 375.609 122.087 374.039 122.087 372.102V358.199C122.087 356.54 120.923 355.12 119.302 354.77C110.528 352.875 102.024 349.419 94.2357 344.397C92.8431 343.499 91.0167 343.681 89.845 344.853L80.021 354.677C78.6517 356.046 76.4314 356.046 75.0616 354.677Z" fill="white"/>
<path d="M135.464 325.682C110.411 325.682 90.1013 305.373 90.1013 280.32C90.1013 255.267 110.411 234.957 135.464 234.957C160.517 234.957 180.827 255.267 180.827 280.32C180.827 305.373 160.517 325.682 135.464 325.682Z" fill="#1682FE"/>
<path d="M135.464 306.37C121.077 306.37 109.413 294.707 109.413 280.319C109.413 265.932 121.077 254.269 135.464 254.269C149.851 254.269 161.515 265.932 161.515 280.319C161.515 294.707 149.851 306.37 135.464 306.37Z" fill="#60D8A4"/>
<path fill-rule="evenodd" clip-rule="evenodd" d="M227.134 242.756L219.459 235.081C218.705 234.328 218.705 233.107 219.459 232.353L224.862 226.95C225.506 226.306 225.606 225.301 225.112 224.536C222.351 220.252 220.45 215.575 219.408 210.75C219.215 209.858 218.434 209.218 217.522 209.218H209.876C208.81 209.218 207.947 208.355 207.947 207.289V196.435C207.947 195.37 208.81 194.506 209.876 194.506H217.522C218.434 194.506 219.215 193.866 219.408 192.974C220.45 188.149 222.351 183.472 225.112 179.189C225.606 178.423 225.506 177.419 224.862 176.774L219.459 171.371C218.705 170.618 218.705 169.397 219.459 168.644L227.134 160.968C227.686 160.416 228.49 160.269 229.177 160.526H238.764C238.957 161.919 239.201 163.688 239.455 165.539C243.242 163.358 247.298 161.817 251.465 160.917C252.356 160.725 252.996 159.944 252.996 159.032V151.385C252.996 150.32 253.86 149.457 254.925 149.457H265.78C266.845 149.457 267.709 150.32 267.709 151.385V159.032C267.709 159.944 268.349 160.725 269.24 160.917C274.066 161.96 278.743 163.861 283.026 166.622C283.792 167.116 284.796 167.016 285.441 166.371L290.843 160.968C291.268 160.544 291.84 160.359 292.394 160.412H302.459L304.018 165.158C303.498 167.847 302.459 173.265 302.459 173.428C302.459 173.552 300.341 173.93 298.49 174.127L295.843 176.774C295.199 177.419 295.099 178.423 295.593 179.189C298.354 183.473 300.255 188.149 301.297 192.975C301.49 193.866 302.271 194.506 303.183 194.506H310.829C311.895 194.506 312.758 195.37 312.758 196.435V207.29C312.758 208.355 311.895 209.219 310.829 209.219H303.183C302.271 209.219 301.49 209.859 301.297 210.75C300.255 215.576 298.354 220.253 295.593 224.536C295.099 225.302 295.199 226.306 295.843 226.951L299.749 230.856C300.074 230.821 300.312 230.809 300.411 230.833C300.834 230.931 303.766 235.09 305.18 237.157L302.305 243.316H292.346C291.808 243.355 291.255 243.168 290.843 242.756L285.441 237.353C284.796 236.709 283.792 236.609 283.026 237.103C278.742 239.864 274.065 241.765 269.24 242.807C268.349 243 267.709 243.781 267.709 244.693V252.339C267.709 253.405 266.845 254.268 265.78 254.268H254.925C253.86 254.268 252.996 253.405 252.996 252.339V244.693C252.996 243.781 252.356 243 251.465 242.807C248.476 242.162 245.545 241.187 242.728 239.882L238.786 243.284H228.874C228.264 243.405 227.607 243.229 227.134 242.756Z" fill="#FCC24C"/>
<path d="M237.359 242.756L229.684 235.081C228.931 234.328 228.931 233.107 229.684 232.353L235.087 226.95C235.731 226.306 235.831 225.301 235.338 224.536C232.576 220.252 230.675 215.575 229.633 210.75C229.44 209.858 228.659 209.218 227.747 209.218H220.101C219.036 209.218 218.172 208.355 218.172 207.289V196.435C218.172 195.37 219.036 194.506 220.101 194.506H227.747C228.659 194.506 229.44 193.866 229.633 192.974C230.675 188.149 232.576 183.472 235.338 179.189C235.831 178.423 235.731 177.419 235.087 176.774L229.684 171.371C228.931 170.618 228.931 169.397 229.684 168.644L237.359 160.968C238.112 160.215 239.333 160.215 240.087 160.968L245.49 166.371C246.134 167.016 247.138 167.116 247.904 166.622C252.188 163.861 256.865 161.96 261.69 160.917C262.582 160.725 263.222 159.944 263.222 159.032V151.385C263.222 150.32 264.085 149.457 265.15 149.457H276.005C277.07 149.457 277.934 150.32 277.934 151.385V159.032C277.934 159.944 278.574 160.725 279.465 160.917C284.291 161.96 288.968 163.861 293.251 166.622C294.017 167.116 295.021 167.016 295.666 166.371L301.069 160.968C301.822 160.215 303.043 160.215 303.796 160.968L311.472 168.644C312.225 169.397 312.225 170.618 311.472 171.371L306.069 176.774C305.424 177.419 305.324 178.423 305.818 179.189C308.579 183.473 310.48 188.149 311.523 192.975C311.715 193.866 312.496 194.506 313.408 194.506H321.055C322.12 194.506 322.983 195.37 322.983 196.435V207.29C322.983 208.355 322.12 209.219 321.055 209.219H313.408C312.496 209.219 311.715 209.859 311.523 210.75C310.48 215.576 308.579 220.253 305.818 224.536C305.324 225.302 305.424 226.306 306.069 226.951L311.472 232.353C312.225 233.107 312.225 234.328 311.472 235.081L303.796 242.756C303.043 243.51 301.822 243.51 301.069 242.756L295.666 237.353C295.021 236.709 294.017 236.609 293.251 237.103C288.967 239.864 284.291 241.765 279.465 242.807C278.574 243 277.934 243.781 277.934 244.693V252.339C277.934 253.405 277.07 254.268 276.005 254.268H265.15C264.085 254.268 263.222 253.405 263.222 252.339V244.693C263.222 243.781 262.581 243 261.69 242.807C256.865 241.765 252.188 239.864 247.904 237.103C247.138 236.609 246.134 236.709 245.489 237.353L240.086 242.756C239.333 243.509 238.112 243.509 237.359 242.756Z" fill="white"/>
<path d="M270.578 226.81C256.799 226.81 245.63 215.64 245.63 201.862C245.63 188.083 256.799 176.914 270.578 176.914C284.356 176.914 295.526 188.083 295.526 201.862C295.526 215.64 284.356 226.81 270.578 226.81Z" fill="#FCC24C"/>
<path d="M270.578 216.189C262.666 216.189 256.251 209.775 256.251 201.862C256.251 193.95 262.666 187.535 270.578 187.535C278.491 187.535 284.905 193.95 284.905 201.862C284.905 209.775 278.491 216.189 270.578 216.189Z" fill="#60D8A4"/>
<rect x="137.85" y="269.545" width="2.46059" height="3.70973" fill="#1682FE"/>
<rect x="130.779" y="262.655" width="2.46059" height="3.70973" fill="#1682FE"/>
<rect x="123.715" y="266.188" width="2.46059" height="3.70973" fill="#60D8A4"/>
<rect x="120.182" y="280.319" width="2.48544" height="10.5972" fill="#F4BB3B"/>
<rect x="120.182" y="269.722" width="2.48544" height="10.5972" fill="#60D8A4"/>
<rect x="141.38" y="273.077" width="2.46059" height="3.70973" fill="#1682FE"/>
<rect x="141.378" y="283.853" width="2.46059" height="3.70973" fill="#FF5A5A"/>
<rect x="137.849" y="287.386" width="2.46059" height="3.70973" fill="#FF5A5A"/>
<rect x="130.781" y="294.272" width="2.46059" height="3.70973" fill="#FF5A5A"/>
<rect x="123.715" y="290.74" width="2.46059" height="3.70973" fill="#F4BB3B"/>
<path d="M150.746 276.787V269.721H147.211V266.188H140.145V262.655H133.08V266.188H126.015V269.721H122.48V290.917H126.013V294.45H133.078V297.983H140.143V294.45H147.211V290.917H150.746V283.852H143.678V287.385H140.145V290.918H133.08V287.385H129.547V273.254H133.08V269.721H140.145V273.254H143.678V276.787H150.746Z" fill="white"/>
</svg>
