<svg width="350" height="334" viewBox="0 0 350 334" fill="none" xmlns="http://www.w3.org/2000/svg">
<circle cx="182.982" cy="166.902" r="166.902" fill="#F4BB3B"/>
<rect x="281.633" y="153.407" width="7.30346" height="11.0111" fill="#1682FE"/>
<rect x="260.646" y="132.958" width="7.30346" height="11.0111" fill="#1682FE"/>
<rect x="239.68" y="143.443" width="7.30346" height="11.0111" fill="#60D8A4"/>
<rect x="229.192" y="185.388" width="7.37723" height="31.4545" fill="#F4BB3B"/>
<rect x="229.192" y="153.934" width="7.37723" height="31.4545" fill="#60D8A4"/>
<rect x="292.113" y="163.89" width="7.30346" height="11.0111" fill="#1682FE"/>
<rect x="292.107" y="195.875" width="7.30346" height="11.0111" fill="#FF5A5A"/>
<rect x="281.629" y="206.363" width="7.30346" height="11.0111" fill="#FF5A5A"/>
<rect x="260.65" y="226.804" width="7.30346" height="11.0111" fill="#FF5A5A"/>
<rect x="239.68" y="216.319" width="7.30346" height="11.0111" fill="#F4BB3B"/>
<path d="M319.912 174.903V153.93H309.42V143.444H288.448V132.958H267.477V143.444H246.507V153.93H236.015V216.843H246.501V227.329H267.471V237.816H288.441V227.329H309.42V216.843H319.912V195.873H298.934V206.359H288.448V216.845H267.477V206.359H256.991V164.417H267.477V153.93H288.448V164.417H298.934V174.903H319.912Z" fill="white"/>
<rect x="227.262" y="45.8135" width="4.92604" height="7.42679" fill="#1682FE"/>
<rect x="213.106" y="32.0215" width="4.92604" height="7.42679" fill="#1682FE"/>
<rect x="198.965" y="39.0933" width="4.92604" height="7.42679" fill="#60D8A4"/>
<rect x="191.891" y="67.3848" width="4.9758" height="21.2154" fill="#F4BB3B"/>
<rect x="191.891" y="46.1694" width="4.9758" height="21.2154" fill="#60D8A4"/>
<rect x="234.33" y="52.8848" width="4.92604" height="7.42679" fill="#1682FE"/>
<rect x="234.326" y="74.458" width="4.92604" height="7.42679" fill="#FF5A5A"/>
<rect x="227.258" y="81.5312" width="4.92604" height="7.42679" fill="#FF5A5A"/>
<rect x="213.109" y="95.3188" width="4.92604" height="7.42679" fill="#FF5A5A"/>
<rect x="198.965" y="88.2476" width="4.92604" height="7.42679" fill="#F4BB3B"/>
<path d="M253.08 60.3124V46.1669H246.003V39.0942H231.858V32.0215H217.714V39.0942H203.57V46.1669H196.493V88.6005H203.565V95.6732H217.709V102.746H231.853V95.6732H246.003V88.6005H253.08V74.4564H238.93V81.5291H231.858V88.6018H217.714V81.5291H210.641V53.2397H217.714V46.1669H231.858V53.2397H238.93V60.3124H253.08Z" fill="white"/>
<path d="M121.036 276.407H5.26227C2.10518 276.407 0 274.302 0 271.145V260.62C0 257.462 2.10518 255.357 5.26227 255.357H121.036C124.193 255.357 126.298 257.463 126.298 260.62V271.145C126.299 274.302 124.193 276.407 121.036 276.407Z" fill="#F6B545"/>
<path d="M99.9863 260.62H0C0 257.462 2.10518 255.357 5.26227 255.357H99.9863V260.62Z" fill="#FFCB5B"/>
<path d="M99.9863 260.621V265.883C99.9863 269.04 97.8811 271.145 94.724 271.145H0C0 274.303 2.10518 276.407 5.26227 276.407H94.7235H121.036C124.193 276.407 126.298 274.302 126.298 271.145V260.62H99.9863V260.621Z" fill="#F19920"/>
<path d="M47.3619 271.145V263.251C47.3619 261.672 46.3095 260.62 44.7307 260.62C43.152 260.62 42.0996 261.672 42.0996 263.251V271.145" fill="#F19920"/>
<path d="M63.149 271.145V263.251C63.149 261.672 62.0966 260.62 60.5179 260.62C58.9391 260.62 57.8867 261.672 57.8867 263.251V271.145" fill="#F19920"/>
<path d="M78.9361 271.145V263.251C78.9361 261.672 77.8837 260.62 76.305 260.62C74.7262 260.62 73.6738 261.672 73.6738 263.251V271.145" fill="#F19920"/>
<path d="M94.7237 271.145V263.251C94.7237 261.672 93.6713 260.62 92.0926 260.62C90.5138 260.62 89.4614 261.672 89.4614 263.251V271.145" fill="#F19920"/>
<path d="M131.561 255.357H15.7872C12.6296 255.357 10.5249 253.252 10.5249 250.095V239.57C10.5249 236.412 12.6301 234.308 15.7872 234.308H131.561C134.718 234.308 136.823 236.413 136.823 239.57V250.095C136.823 253.252 134.718 255.357 131.561 255.357Z" fill="#F6B545"/>
<path d="M110.511 239.57H10.5249C10.5249 236.412 12.6301 234.308 15.7872 234.308H110.511V239.57Z" fill="#FFCB5B"/>
<path d="M110.511 239.57V244.833C110.511 247.99 108.406 250.095 105.249 250.095H10.5249C10.5249 253.252 12.6301 255.357 15.7872 255.357H105.248H131.561C134.718 255.357 136.823 253.252 136.823 250.095V239.57H110.511V239.57Z" fill="#F19920"/>
<path d="M57.8868 250.095V242.201C57.8868 240.623 56.8344 239.57 55.2556 239.57C53.6769 239.57 52.6245 240.623 52.6245 242.201V250.095" fill="#F19920"/>
<path d="M73.6739 250.095V242.201C73.6739 240.623 72.6215 239.57 71.0428 239.57C69.464 239.57 68.4116 240.623 68.4116 242.201V250.095" fill="#F19920"/>
<path d="M89.461 250.095V242.201C89.461 240.623 88.4086 239.57 86.8299 239.57C85.2511 239.57 84.1987 240.623 84.1987 242.201V250.095" fill="#F19920"/>
<path d="M105.248 250.095V242.201C105.248 240.623 104.196 239.57 102.617 239.57C101.038 239.57 99.9858 240.623 99.9858 242.201V250.095" fill="#F19920"/>
<path d="M142.086 213.258H26.3121C23.1545 213.258 21.0498 211.153 21.0498 207.996V197.471C21.0498 194.313 23.155 192.208 26.3121 192.208H142.086C145.243 192.208 147.348 194.314 147.348 197.471V207.996C147.348 211.153 145.243 213.258 142.086 213.258Z" fill="#F6B545"/>
<path d="M121.036 197.471H21.0493C21.0493 194.313 23.1545 192.208 26.3116 192.208H121.036V197.471Z" fill="#FFCB5B"/>
<path d="M121.036 197.471V202.733C121.036 205.89 118.93 207.995 115.773 207.995H21.0493C21.0493 211.153 23.1545 213.257 26.3116 213.257H115.773H142.086C145.243 213.257 147.348 211.152 147.348 207.995V197.47H121.036V197.471Z" fill="#F19920"/>
<path d="M68.4112 207.996V200.102C68.4112 198.524 67.3588 197.471 65.7801 197.471C64.2013 197.471 63.1489 198.524 63.1489 200.102V207.996" fill="#F19920"/>
<path d="M84.1988 207.996V200.102C84.1988 198.524 83.1464 197.471 81.5677 197.471C79.9889 197.471 78.9365 198.524 78.9365 200.102V207.996" fill="#F19920"/>
<path d="M99.9859 207.996V200.102C99.9859 198.524 98.9335 197.471 97.3548 197.471C95.776 197.471 94.7236 198.524 94.7236 200.102V207.996" fill="#F19920"/>
<path d="M115.773 207.996V200.102C115.773 198.524 114.721 197.471 113.142 197.471C111.563 197.471 110.511 198.524 110.511 200.102V207.996" fill="#F19920"/>
<path d="M131.561 192.208H15.7872C12.6296 192.208 10.5249 190.103 10.5249 186.946V176.421C10.5249 173.263 12.6301 171.159 15.7872 171.159H131.561C134.718 171.159 136.823 173.264 136.823 176.421V186.946C136.823 190.103 134.718 192.208 131.561 192.208Z" fill="#F6B545"/>
<path d="M110.511 176.421H10.5249C10.5249 173.263 12.6301 171.159 15.7872 171.159H110.511V176.421Z" fill="#FFCB5B"/>
<path d="M121.036 234.308H5.26227C2.10518 234.308 0 232.203 0 229.045V218.52C0 215.363 2.10518 213.258 5.26227 213.258H121.036C124.193 213.258 126.298 215.363 126.298 218.52V229.045C126.299 232.203 124.193 234.308 121.036 234.308Z" fill="#F6B545"/>
<path d="M99.9863 218.521H0C0 215.363 2.10518 213.258 5.26227 213.258H99.9863V218.521Z" fill="#FFCB5B"/>
<path d="M99.9863 218.521V223.783C99.9863 226.941 97.8811 229.045 94.724 229.045H0C0 232.203 2.10518 234.308 5.26227 234.308H94.7235H121.036C124.193 234.308 126.298 232.203 126.298 229.045V218.521H99.9863V218.521Z" fill="#F19920"/>
<path d="M63.149 229.045V221.151C63.149 219.572 62.0966 218.52 60.5179 218.52C58.9391 218.52 57.8867 219.572 57.8867 221.151V229.045" fill="#F19920"/>
<path d="M78.9361 229.045V221.151C78.9361 219.572 77.8837 218.52 76.305 218.52C74.7262 218.52 73.6738 219.572 73.6738 221.151V229.045" fill="#F19920"/>
<path d="M94.7237 229.045V221.151C94.7237 219.572 93.6713 218.52 92.0926 218.52C90.5138 218.52 89.4614 219.572 89.4614 221.151V229.045" fill="#F19920"/>
<path d="M221.022 242.201C214.181 237.465 210.497 229.571 210.497 221.152C210.497 189.051 197.867 158.529 175.239 135.9L152.61 113.272V97.4847L171.029 74.33C172.608 72.2248 173.66 69.5937 173.66 66.9621C173.66 60.647 168.398 55.3848 162.083 55.3848H101.039C94.7237 55.3848 89.4614 60.647 89.4614 66.9621C89.4614 69.5932 90.5138 72.2244 92.0926 74.3296L110.511 97.4843V113.272L87.8826 135.9C65.2544 158.528 52.6242 189.05 52.6242 221.151C52.6242 229.571 48.9407 237.465 42.0992 242.201C35.2577 246.937 31.5742 254.83 31.5742 263.25C31.5742 270.618 37.3629 276.406 44.7303 276.406H218.391C225.758 276.406 231.547 270.618 231.547 263.25C231.547 254.831 227.864 246.937 221.022 242.201Z" fill="white"/>
<path d="M222.047 242.728C215.16 237.466 211.45 229.572 211.45 221.153C211.98 187.999 196.615 156.951 173.302 133.27L153.169 113.799V98.0116L171.713 74.8569C174.892 71.1734 175.421 65.9107 172.772 61.1744C170.653 57.4909 166.414 55.9121 162.176 55.9121C158.467 55.9121 156.347 60.122 157.407 63.2796C157.937 64.3319 158.467 65.9107 158.467 67.4895C158.467 70.1206 157.407 72.7517 155.817 74.8569L137.273 98.0116V113.799L127.003 111.493L110.685 112.937L104.655 119.061H142.572L162.176 138.532C183.899 160.108 192.376 189.578 190.257 219.574C189.727 228.52 193.436 236.94 200.324 242.202C200.854 242.728 201.384 243.254 201.914 243.254C209.861 251.674 202.973 265.883 190.787 265.883H31.8374C32.8969 271.671 38.1956 276.408 44.5533 276.408H198.205H211.451H219.399C226.816 276.408 232.644 270.619 232.644 263.252V262.2C232.644 254.306 228.405 247.465 222.047 242.728Z" fill="url(#paint0_linear)"/>
<path d="M155.242 113.272H107.88C103.67 113.272 99.9858 109.588 99.9858 105.378C99.9858 101.168 103.669 97.4839 107.88 97.4839H155.241C159.451 97.4839 163.135 101.167 163.135 105.378C163.135 109.588 159.452 113.272 155.242 113.272Z" fill="#FFCB5B"/>
<path d="M107.88 97.4844H134.192C135.771 97.4844 136.823 98.5367 136.823 100.116C136.823 101.694 135.771 102.747 134.192 102.747H107.88C106.301 102.747 105.249 101.694 105.249 100.116C105.249 98.5372 106.301 97.4844 107.88 97.4844Z" fill="#FFE278"/>
<path d="M155.242 97.4844H152.611V102.747C152.611 105.904 150.506 108.009 147.349 108.009H100.513C101.565 111.166 104.723 113.271 107.88 113.271H155.242C159.452 113.271 163.136 109.588 163.136 105.377C163.136 101.167 159.452 97.4844 155.242 97.4844Z" fill="#F19920"/>
<path d="M139.454 108.009H155.242C156.82 108.009 157.873 109.062 157.873 110.64C157.873 112.219 156.82 113.272 155.242 113.272H139.454C137.876 113.272 136.823 112.219 136.823 110.64C136.823 109.062 137.876 108.009 139.454 108.009Z" fill="#F19920"/>
<path d="M136.823 113.271H126.298V155.371H136.823V113.271Z" fill="#F6B545"/>
<path d="M126.298 113.271V118.534H131.561V155.371H136.823V118.534V113.271H126.298Z" fill="#F19920"/>
<path d="M131.56 234.308C154.811 234.308 173.66 215.459 173.66 192.208C173.66 168.957 154.811 150.109 131.56 150.109C108.31 150.109 89.4609 168.957 89.4609 192.208C89.4609 215.459 108.31 234.308 131.56 234.308Z" fill="#F6B545"/>
<path d="M163.661 165.37C169.976 172.737 173.66 181.683 173.66 192.208C173.66 215.363 154.715 234.308 131.56 234.308C121.035 234.308 112.089 230.624 104.722 224.309C112.616 233.781 124.193 239.57 136.823 239.57C159.978 239.57 178.923 220.625 178.923 197.471C178.922 184.314 173.133 172.737 163.661 165.37Z" fill="#F19920"/>
<path d="M131.56 229.046C151.905 229.046 168.398 212.553 168.398 192.208C168.398 171.864 151.905 155.371 131.56 155.371C111.216 155.371 94.7231 171.864 94.7231 192.208C94.7231 212.553 111.216 229.046 131.56 229.046Z" fill="#FFCB5B"/>
<path d="M168.398 192.208C168.398 212.732 152.084 229.046 131.561 229.046V234.308C154.715 234.308 173.66 215.363 173.66 192.208H168.398Z" fill="#FFE27A"/>
<path d="M131.56 155.371V150.109C108.406 150.109 89.4609 169.054 89.4609 192.208H94.7232C94.7237 171.685 111.037 155.371 131.56 155.371Z" fill="#FFE27A"/>
<path d="M154.579 185.717V174.701H149.068V169.193H138.052V163.686H127.037V169.193H116.022V174.701H110.511V207.747H116.019V213.255H127.034V218.762H138.049V213.255H149.068V207.747H154.579V196.732H143.56V202.24H138.052V207.748H127.037V202.24H121.529V180.209H127.037V174.701H138.052V180.209H143.56V185.717H154.579Z" fill="white"/>
<defs>
<linearGradient id="paint0_linear" x1="132.241" y1="55.9121" x2="132.241" y2="276.408" gradientUnits="userSpaceOnUse">
<stop stop-color="#CFCFCF"/>
<stop offset="1" stop-color="#CFCFCF" stop-opacity="0"/>
</linearGradient>
</defs>
</svg>
