<svg width="428" height="72" viewBox="0 0 428 72" fill="none" xmlns="http://www.w3.org/2000/svg">
<path d="M28.7747 29.0714L29.1459 21.0911H28.7021L20.4178 34.4892H18.6426L9.98707 21.0911H9.61589L10.0597 28.2651V56.3664H0.439941V5.13989H10.7254L19.6028 19.3362H19.8973L28.7021 5.13989H38.9122V56.3664H28.7747V29.0714Z" fill="#29C278"/>
<path d="M46.2295 48.3183H59.2531V27.8234H46.2295V19.7779H68.8661V48.3183H82.554V56.3664H46.2295V48.3183ZM57.4738 9.82321C57.4738 8.3131 58.044 7.01987 59.1818 5.94616C60.3142 4.87245 61.893 4.33228 63.913 4.33228C65.9841 4.33228 67.6396 4.87245 68.8728 5.94616C70.1074 7.01987 70.7247 8.3131 70.7247 9.82321C70.7247 11.3852 70.1074 12.6691 68.8728 13.6697C67.6423 14.6702 65.9867 15.1665 63.913 15.1665C61.893 15.1665 60.3142 14.6702 59.1818 13.6697C58.0414 12.6691 57.4738 11.3852 57.4738 9.82321Z" fill="#29C278"/>
<path d="M101.862 37.4882L88.9878 19.7781H100.455L108.815 32L117.544 19.7781H127.974L115.325 37.3445L128.708 56.3666H117.544L108.151 42.9033L98.6076 56.3666H88.1016L101.862 37.4882Z" fill="#29C278"/>
<path d="M170.064 17.0678C170.064 18.3411 169.904 19.6038 169.581 20.8717C169.264 22.145 168.734 23.2959 167.991 24.351C167.256 25.398 166.289 26.3307 165.105 27.1317C163.919 27.9353 162.495 28.538 160.813 28.9252V29.3642C162.297 29.6064 163.699 30.0188 165.031 30.6122C166.365 31.195 167.523 31.9999 168.512 33.0244C169.495 34.0502 170.272 35.2929 170.841 36.7591C171.407 38.224 171.691 39.9536 171.691 41.9493C171.691 44.5824 171.124 46.8629 169.985 48.7961C168.853 50.7186 167.336 52.2979 165.439 53.5126C163.54 54.7314 161.376 55.6348 158.967 56.2202C156.543 56.8056 154.055 57.0983 151.489 57.0983C150.65 57.0983 149.579 57.0983 148.27 57.0983C146.965 57.0983 145.554 57.0664 144.054 56.9945C142.549 56.9147 141.018 56.8056 139.466 56.6592C137.916 56.5156 136.496 56.2987 135.212 55.9993V5.50721C136.147 5.35953 137.224 5.21317 138.429 5.06549C139.639 4.92579 140.934 4.80604 142.319 4.70493C143.695 4.60647 145.118 4.53329 146.569 4.47874C148.023 4.4375 149.466 4.41089 150.901 4.41089C153.316 4.41089 155.673 4.5905 157.963 4.95639C160.256 5.32227 162.305 5.96756 164.099 6.89491C165.9 7.82759 167.343 9.11683 168.433 10.7773C169.521 12.4324 170.064 14.5346 170.064 17.0678ZM148.16 26.6567C148.861 26.6567 149.679 26.6301 150.608 26.5888C151.54 26.5343 152.309 26.4611 152.914 26.368C154.821 25.7852 156.473 24.9204 157.857 23.7589C159.235 22.6 159.929 21.0819 159.929 19.2006C159.929 17.9433 159.676 16.9002 159.172 16.082C158.666 15.261 158.003 14.6118 157.176 14.1275C156.345 13.6472 155.404 13.3065 154.347 13.1163C153.291 12.9234 152.187 12.8223 151.026 12.8223C149.718 12.8223 148.514 12.8489 147.404 12.8981C146.3 12.9447 145.445 13.0178 144.845 13.111V26.6554L148.16 26.6567ZM151.423 48.6883C152.653 48.6883 153.853 48.5406 155.011 48.2466C156.169 47.9578 157.194 47.5135 158.078 46.9134C158.971 46.308 159.68 45.5443 160.226 44.6263C160.768 43.7109 161.039 42.6199 161.039 41.3626C161.039 39.77 160.718 38.5114 160.074 37.6026C159.43 36.6806 158.594 35.9728 157.555 35.4645C156.52 34.9576 155.365 34.633 154.082 34.488C152.801 34.3456 151.52 34.2724 150.238 34.2724H144.84V48.2532C145.083 48.3517 145.477 48.4222 146.021 48.4741C146.562 48.518 147.143 48.5579 147.759 48.5805C148.377 48.6085 149.017 48.6297 149.683 48.659C150.351 48.6776 150.929 48.6883 151.423 48.6883Z" fill="#29C278"/>
<path d="M197.282 46.0526H200.1L207.276 19.7781H217.186L206.679 52.7836C205.744 55.515 204.828 58.0204 203.945 60.2809C203.055 62.5573 202.018 64.5198 200.837 66.1749C199.653 67.8381 198.256 69.1193 196.657 70.0187C195.055 70.9208 193.099 71.3772 190.773 71.3772C189.642 71.3772 188.568 71.2321 187.557 70.9381C186.548 70.6414 185.617 70.2941 184.782 69.8803C183.942 69.4599 183.203 69.0209 182.563 68.5605C181.922 68.0975 181.404 67.6691 181.015 67.2819L185.97 60.7652C186.614 61.3053 187.378 61.8016 188.263 62.2673C189.149 62.7303 189.988 62.9605 190.775 62.9605C192.258 62.9605 193.429 62.4509 194.292 61.4251C195.155 60.4006 195.981 58.7202 196.769 56.3732H191.517L176.133 19.7847H186.564L197.282 46.0526Z" fill="#29C278"/>
<path d="M227.984 27.8236H220.667V19.7781H227.984V11.4319L237.598 8.72705V19.7794H256.98V27.8249H237.598V38.2945C237.598 42.0479 238.311 44.766 239.743 46.4518C241.173 48.1402 243.174 48.981 245.737 48.981C247.065 48.981 248.275 48.8174 249.358 48.5047C250.444 48.1907 251.413 47.7876 252.284 47.2966C253.145 46.8097 253.936 46.2708 254.65 45.6881C255.362 45.1 256.023 44.5651 256.609 44.0795L261.048 50.6641C260.208 51.6367 259.166 52.5255 257.904 53.3357C256.647 54.138 255.294 54.8525 253.837 55.4605C252.384 56.0659 250.867 56.5422 249.286 56.8828C247.71 57.2234 246.158 57.3964 244.624 57.3964C239.104 57.3964 234.95 55.8716 232.16 52.8222C229.376 49.774 227.981 44.9297 227.981 38.2959V27.8262L227.984 27.8236Z" fill="#29C278"/>
<path d="M303.287 52.4896C302.648 53.0764 301.822 53.6485 300.809 54.2099C299.802 54.7714 298.616 55.2983 297.26 55.7852C295.897 56.2735 294.413 56.6607 292.785 56.9547C291.159 57.2488 289.428 57.3885 287.602 57.3885C284.442 57.3885 281.625 56.9547 279.13 56.0739C276.641 55.2011 274.534 53.9172 272.808 52.2328C271.083 50.5537 269.759 48.5301 268.857 46.1578C267.936 43.7988 267.484 41.1033 267.484 38.0764C267.484 34.8593 267.999 32.04 269.032 29.6211C270.069 27.209 271.489 25.2012 273.29 23.5847C275.086 21.9788 277.2 20.7734 279.609 19.9591C282.026 19.1582 284.638 18.7563 287.452 18.7563C289.33 18.7563 291.262 19.0012 293.255 19.4894C295.254 19.9751 297.092 20.8199 298.772 22.0147C300.449 23.2068 301.817 24.8061 302.874 26.8071C303.935 28.8082 304.467 31.3468 304.467 34.4215C304.467 36.5144 304.219 38.7829 303.726 41.2257H277.097C277.145 42.789 277.475 44.1075 278.092 45.1772C278.709 46.2509 279.522 47.1317 280.532 47.8103C281.54 48.4915 282.7 48.9971 284.009 49.3071C285.318 49.6251 286.707 49.7834 288.188 49.7834C291.148 49.7834 293.575 49.4428 295.472 48.7602C297.372 48.0697 298.913 47.2435 300.095 46.2709L303.287 52.4896ZM287.314 26.3628C286.029 26.3628 284.82 26.5344 283.687 26.8856C282.552 27.2342 281.53 27.7411 280.62 28.4157C279.702 29.0863 278.958 29.9205 278.362 30.9104C277.773 31.9056 277.43 33.0285 277.326 34.2672H295.527C295.527 31.8324 294.846 29.9045 293.487 28.4902C292.134 27.0759 290.073 26.3628 287.314 26.3628Z" fill="#29C278"/>
<path d="M337.909 46.2709C337.909 45.2969 337.307 44.5173 336.093 43.9239C334.888 43.3411 333.393 42.8036 331.623 42.3206C329.848 41.827 327.896 41.3254 325.775 40.8132C323.657 40.301 321.708 39.5945 319.928 38.6924C318.153 37.7877 316.661 36.6421 315.458 35.2544C314.249 33.8614 313.641 32.0639 313.641 29.8752C313.641 28.0671 314.049 26.4785 314.86 25.1174C315.673 23.751 316.785 22.5868 318.189 21.6435C319.597 20.6869 321.273 19.9671 323.22 19.4814C325.166 18.9932 327.28 18.7537 329.548 18.7537C331.958 18.7537 334.081 18.92 335.906 19.2606C337.731 19.6012 339.323 20.019 340.679 20.5086C342.037 20.9942 343.193 21.5397 344.159 22.1531C345.121 22.7664 345.943 23.3093 346.637 23.7976L342.571 30.3103C341.829 29.8766 340.979 29.4242 340.021 28.9585C339.056 28.4982 338.044 28.0671 336.983 27.6799C335.926 27.2874 334.815 26.9734 333.655 26.7206C332.494 26.4785 331.347 26.3601 330.213 26.3601C328.141 26.3601 326.468 26.6275 325.184 27.1677C323.905 27.6999 323.26 28.5341 323.26 29.6544C323.26 30.5352 323.862 31.2416 325.075 31.7778C326.28 32.3154 327.774 32.8143 329.552 33.2746C331.319 33.743 333.272 34.2446 335.391 34.7821C337.512 35.3116 339.459 36.0141 341.238 36.8616C343.01 37.7171 344.508 38.8308 345.714 40.1932C346.919 41.5623 347.531 43.3172 347.531 45.4659C347.531 49.174 346.158 52.0878 343.416 54.2099C340.679 56.3307 336.626 57.3938 331.252 57.3938C327.007 57.3938 323.348 56.7724 320.264 55.5311C317.183 54.2831 314.7 52.8342 312.831 51.179L317.273 44.2951C317.917 44.8326 318.762 45.4313 319.823 46.0912C320.881 46.7458 322.077 47.3512 323.406 47.8874C324.738 48.4223 326.156 48.872 327.663 49.2392C329.163 49.6051 330.658 49.79 332.138 49.79C333.718 49.79 335.071 49.5226 336.207 48.9851C337.341 48.4409 337.909 47.5388 337.909 46.2709Z" fill="#29C278"/>
<path d="M385.937 0.764001C382.759 6.46515 380.395 11.9907 378.856 17.3406C377.315 22.6838 376.538 28.0284 376.538 33.3743C376.538 38.6697 377.313 44.0156 378.856 49.3894C380.395 54.7713 382.752 60.3301 385.937 66.0538H377.7C373.87 60.5389 371.031 55.1052 369.174 49.7394C367.319 44.3934 366.395 38.9265 366.395 33.3703C366.395 27.8355 367.327 22.3778 369.192 16.996C371.064 11.6168 373.897 6.19905 377.7 0.76001H385.937V0.764001Z" fill="#29C278"/>
<path d="M408.255 0.763916H416.489C420.295 6.20562 423.13 11.6207 424.994 16.9999C426.862 22.3817 427.797 27.8381 427.797 33.3742C427.797 38.9304 426.87 44.3974 425.016 49.7433C423.161 55.1065 420.321 60.5428 416.489 66.0551H408.255C411.43 60.33 413.797 54.7738 415.338 49.3933C416.879 44.0195 417.654 38.6709 417.654 33.3782C417.654 28.0323 416.882 22.6877 415.338 17.3445C413.797 11.9906 411.434 6.46507 408.255 0.763916Z" fill="#29C278"/>
</svg>
